<svg xmlns="http://www.w3.org/2000/svg" version="1.1" xmlns:xlink="http://www.w3.org/1999/xlink" xmlns:svgjs="http://svgjs.com/svgjs" width="512" height="512" x="0" y="0" viewBox="0 0 48 60" style="enable-background:new 0 0 512 512" xml:space="preserve"><g><g id="Page-1" fill="none" fill-rule="evenodd"><g id="044---Beach" fill="rgb(0,0,0)" fill-rule="nonzero" transform="translate(-1)"><path id="Shape" d="m25 4c-11.045695 0-20 8.954305-20 20s8.954305 20 20 20 20-8.954305 20-20c-.0126747-11.0404407-8.9595593-19.98732534-20-20zm-9.6 4.8c1.2521092.9390819 1.8414853 2.522169 1.5083315 4.0514371-.3331539 1.5292681-1.5276263 2.7237405-3.0568944 3.0568944-1.5292681.3331538-3.1123552-.2562223-4.0514371-1.5083315 1.4307079-2.2569144 3.3430856-4.1692921 5.6-5.6zm24.737 24.9c-.3448559.5396999-.7180449 1.0607625-1.118 1.561l-.1-.074c-1.8857527-1.5928524-4.6466465-1.589046-6.528.009-1.1696924 1.0665961-2.9593076 1.0665961-4.129 0-1.8831343-1.5986521-4.6468657-1.5986521-6.53 0-1.1696924 1.0665961-2.9593076 1.0665961-4.129 0-1.8775724-1.5976578-4.6355342-1.6018891-6.518-.01l-.1.074c-.399857-.4997308-.772722-1.0204733-1.117-1.56 4.4159935-3.135683 9.7165799-4.7820454 15.132-4.7 5.4169966-.0812278 10.7187821 1.5669322 15.135 4.705zm-27.815 3.062c.5471447-.5016254 1.2658121-.7743468 2.008-.762.7675248-.0112403 1.5095169.2755199 2.07.8 1.882999 1.6000504 4.648001 1.6000504 6.531 0 1.1700228-1.0667329 2.9599772-1.0667329 4.13 0 1.8828112 1.5985018 4.6461888 1.5985018 6.529 0 .5604831-.5244801 1.3024752-.8112403 2.07-.8.7446107-.0114807 1.4655812.2613866 2.016.763-7.0088329 6.9831374-18.3451671 6.9831374-25.354 0zm28.8-4.809c-3.6093215-2.5466851-7.7958938-4.154711-12.182-4.679l3.265-5.218c.1872752.2255226.3517452.4690454.491.727.2931053.5330005.843269.8742461 1.451.9.6341393.0142121 1.2539768.1912102 1.8.514.290331.1832225.5470584.4149198.759.685.3307385.3911858.8167368.6171804 1.329.618.1387833-.0000601.277074-.0165073.412-.049.6398741-.1548159 1.1371198-.6582578 1.284-1.3 1.0440409-3.7511503-.5776318-7.7340112-3.945-9.689-3.2305766-2.1658947-7.5153411-1.8812296-10.431.693-.518766.4069874-.7592116 1.0747194-.619 1.719.1394048.6524884.6398396 1.1676875 1.288 1.326.3372596.0762221.659603.2076599.954.389.5212621.3574693.9458984.838449 1.236 1.4.2937656.5333126.8446641.8745436 1.453.9.2837801.0124727.5657235.051985.842.118l-3.8 6.066c-.566-.038-1.134-.073-1.709-.073-5.7601082-.0760696-11.3990361 1.6562141-16.123 4.953-2.46741428-4.9343687-2.50435843-10.7346009-.1-15.7 2.3400305 2.3400304 6.1339695 2.3400304 8.4739999-.0000001 2.3400305-2.3400304 2.3400305-6.1339694.0000001-8.4739999 6.9131726-3.32776653 15.1768666-1.89625276 20.5678774 3.5629586 5.3910107 5.4592114 6.7185302 13.7402477 3.3041226 20.6110414zm-8.611-12.269c-.7960191-.471281-1.6942294-.7430085-2.618-.792-.4453557-.8080993-1.081911-1.4947825-1.854-2-.3222638-.2042471-.6676937-.3694089-1.029-.492 2.2372748-1.7690201 5.3672971-1.8700541 7.714-.249 2.4897658 1.3979526 3.7708226 4.2610374 3.154 7.049-.2634927-.267747-.5582835-.5027737-.878-.7-.794387-.4805621-1.6949091-.7580686-2.622-.808-.4468062-.8133539-1.08827-1.5032625-1.867-2.008z" fill="#ffffff" data-original="#000000"></path><path id="Shape" d="m25 0c-11.4914198-.00524923-21.3727799 8.13875968-23.56240862 19.419641-2.18962871 11.2808812 3.92746902 22.5302045 14.58640862 26.824359l3.042 4.14c-3.388.442-9.066 1.628-9.066 4.616 0 3.436 7.775 5 15 5s15-1.564 15-5c0-2.974-5.627-4.163-9.068-4.612l3.044-4.144c10.6589396-4.2941545 16.7760373-15.5434778 14.5864086-26.824359-2.1896287-11.28088132-12.0709888-19.42489023-23.5624086-19.419641zm13 55c0 .9-4.423 3-13 3s-13-2.1-13-3c0-.671 2.56-2.181 8.429-2.759l1.712 2.329c.6772148.8997212 1.7383927 1.4282429 2.8644992 1.4266693s2.1858031-.5330589 2.8605008-1.4346693l1.7-2.321c5.874.578 8.434 2.088 8.434 2.759zm-5.019-10.513c-1.341346.5221251-2.7311389.910021-4.149 1.158-.3606894.0513149-.6649313.2947283-.7941431.6353664-.1292118.3406382-.0629454.7245939.1729711 1.002215s.6041483.404973.961172.3324186c.522-.09 1.042-.206 1.562-.333l-4.471 6.087c-.3084961.3762274-.7688479.5950856-1.2553803.5968266-.4865325.0017411-.9484389-.2138167-1.2596197-.5878266l-4.477-6.1c.519.127 1.04.243 1.561.333.3570237.0725544.7252555-.0547975.961172-.3324186s.3021829-.6615768.1729711-1.002215c-.1292118-.3406381-.4334537-.5840515-.7941431-.6353664-1.4178611-.247979-2.807654-.6358749-4.149-1.158-9.86343107-3.8397571-15.59451599-14.158907-13.64108109-24.5615557 1.95343491-10.40264865 11.03761099-17.93975253 21.62208109-17.93975253s19.6686462 7.53710388 21.6220811 17.93975253c1.9534349 10.4026487-3.77765 20.7217986-13.6410811 24.5615557z" fill="#ffffff" data-original="#000000"></path><path id="Shape" d="m17 20c-1.1487161-.0006041-2.2419626.4939077-3 1.357-.7580374-.8630923-1.8512839-1.3576041-3-1.357-.5522847 0-1 .4477153-1 1s.4477153 1 1 1c1.1045695 0 2 .8954305 2 2 0 .5522847.4477153 1 1 1s1-.4477153 1-1c0-1.1045695.8954305-2 2-2 .5522847 0 1-.4477153 1-1s-.4477153-1-1-1z" fill="#ffffff" data-original="#000000"></path></g></g></g></svg>