<svg xmlns="http://www.w3.org/2000/svg" version="1.1" xmlns:xlink="http://www.w3.org/1999/xlink" xmlns:svgjs="http://svgjs.com/svgjs" width="30" height="30" x="0" y="0" viewBox="0 0 15 15" style="enable-background:new 0 0 30 30" xml:space="preserve"><g><g><path d="m148.8931 194.1695 39.2254-70.5548c1.946-3.0803 3.6545-6.3191 5.0784-9.6277 3.2404-7.5308 5.0977-15.5112 5.5193-23.7182.0612-1.1881.0924-2.3998.0924-3.6024 0-38.5537-31.7679-69.9193-70.8163-69.9193s-70.8168 31.3656-70.8168 69.9193c0 1.1913.0312 2.403.0924 3.6019.4222 8.2092 2.2795 16.189 5.5193 23.7188 1.4228 3.3059 3.1313 6.5447 5.0778 9.6271l39.2263 70.5554c-31.0492 2.2198-57.5826 9.4452-57.5826 21.3086 0 14.4719 39.4824 22.0441 78.4835 22.0441s78.4835-7.5722 78.4835-22.0441c.0001-11.8635-26.5332-19.089-57.5826-21.3087zm-76.2585-73.2957c-.0252-.0457-.0521-.0908-.08-.1348-1.8101-2.8585-3.3967-5.8615-4.7153-8.9262-2.981-6.9282-4.69-14.2715-5.0789-21.826-.0564-1.1048-.0849-2.222-.0849-3.3204 0-35.5207 29.3009-64.4193 65.3168-64.4193 36.0153 0 65.3163 28.8986 65.3163 64.4193 0 1.1086-.0285 2.2252-.0849 3.3193-.3883 7.5539-2.0974 14.8978-5.0789 21.827-1.3197 3.0674-2.9063 6.0704-4.7148 8.9257-.0285.0446-.0548.0897-.0806.1353l-48.9205 87.993c-1.3181 2.3708-3.7243 3.7861-6.4372 3.7861-2.7124 0-5.1181-1.4153-6.4362-3.7861zm108.2302 105.5823c-14.0884 3.5895-32.8657 5.5661-52.8725 5.5661s-38.7841-1.9766-52.8725-5.5661c-14.8441-3.7818-20.111-8.2774-20.111-10.978s5.2669-7.1962 20.111-10.978c9.7706-2.4894 21.7985-4.2011 34.9254-5.0177l6.7033 12.057c2.3021 4.1411 6.5055 6.6134 11.2433 6.6134h.0005c4.7378 0 8.9413-2.4723 11.2438-6.6134l6.7031-12.057c13.1271.8165 25.1551 2.5283 34.9255 5.0177 14.8441 3.7818 20.111 8.2774 20.111 10.978.0001 2.7006-5.2668 7.1962-20.1109 10.978z" fill="#ffffff" data-original="#000000"></path><path d="m159.3391 129.9633c23.874-17.2842 29.2349-50.7692 11.9501-74.6437-17.2847-23.8734-50.7702-29.2349-74.6437-11.9496-11.565 8.373-19.1769 20.7485-21.4344 34.8466-2.2569 14.0981 1.1113 28.2315 9.4843 39.7966 10.4409 14.4214 26.7932 22.0876 43.3678 22.0876 10.8636-.0001 21.8233-3.2937 31.2759-10.1375zm-78.6968-50.8771c2.0249-12.6479 8.8537-23.7499 19.2291-31.2614 8.481-6.1402 18.3101-9.0938 28.0575-9.0938 14.8677 0 29.5394 6.8782 38.9055 19.8145 7.1801 9.9173 9.996 21.6825 8.8322 32.9984-1.2029.8232-2.0755 1.2381-3.8844 1.2381-2.157 0-2.981-.5876-4.6245-1.7585-2.0271-1.4459-5.0902-3.6314-10.4924-3.6314-5.4028 0-8.4659 2.1855-10.4919 3.6309-1.643 1.1714-2.4675 1.759-4.6256 1.759-2.1576 0-2.9815-.5876-4.624-1.7585-2.0271-1.4459-5.0902-3.6314-10.493-3.6314-5.4022 0-8.4654 2.1855-10.4919 3.6314-1.6419 1.1709-2.4664 1.7585-4.6234 1.7585-2.1576 0-2.982-.5876-4.6234-1.7585-2.0265-1.4459-5.0891-3.6314-10.4919-3.6314-5.4017 0-8.4643 2.1855-10.4903 3.6314-1.6419 1.1709-2.4664 1.7585-4.6229 1.7585-.2406 0-.4623-.0085-.6727-.0231-.5682-4.4878-.507-9.0816.228-13.6727zm.8061 19.1875c3.6754-.0854 5.5986-1.4488 7.4557-2.7729 1.7972-1.2826 3.6556-2.6087 7.2961-2.6087 3.6416 0 5.5 1.3261 7.2977 2.6093 1.9175 1.3669 3.9 2.7806 7.8176 2.7806 3.9171 0 5.8996-1.4137 7.8176-2.7812 1.7977-1.2826 3.6566-2.6087 7.2977-2.6087 3.6416 0 5.5005 1.3261 7.3004 2.6104 1.9169 1.3664 3.8994 2.7795 7.8166 2.7795 3.9177 0 5.9007-1.4137 7.8192-2.7812 1.7977-1.2826 3.6566-2.6087 7.2982-2.6087 3.6411 0 5.5 1.3261 7.302 2.6114 1.9169 1.3659 3.8989 2.7785 7.8149 2.7785 1.0519 0 1.9607-.1044 2.7699-.28-1.0436 4.3003-2.6805 8.4624-4.8872 12.3576-.8461-.2834-1.5334-.7706-2.5072-1.4643-2.0271-1.4459-5.0902-3.6314-10.4924-3.6314-5.4028 0-8.4659 2.1855-10.4919 3.6309-1.643 1.1714-2.4675 1.759-4.6256 1.759-2.1576 0-2.9815-.5876-4.624-1.7585-2.0271-1.4459-5.0902-3.6314-10.493-3.6314-5.4022 0-8.4654 2.1855-10.4919 3.6314-1.6419 1.1709-2.4664 1.7585-4.6234 1.7585-2.1576 0-2.982-.5876-4.6234-1.7585-2.0265-1.4459-5.0891-3.6314-10.4919-3.6314-5.4017 0-8.4643 2.1855-10.4903 3.6314-.054.0386-.1008.0712-.1532.1085-1.8098-3.4212-3.1825-7.0203-4.1082-10.7301zm7.7018 16.5136c-.2545-.3514-.4906-.712-.7348-1.0686.164-.1152.327-.2307.4888-.3461 1.7972-1.2826 3.6556-2.6087 7.2961-2.6087 3.6416 0 5.5 1.3261 7.2977 2.6093 1.9175 1.3669 3.9 2.7806 7.8176 2.7806 3.9171 0 5.8996-1.4137 7.8176-2.7812 1.7977-1.2826 3.6566-2.6087 7.2977-2.6087 3.6416 0 5.5005 1.3261 7.3004 2.6104 1.9169 1.3664 3.8994 2.7795 7.8166 2.7795 3.9177 0 5.9007-1.4137 7.8192-2.7812 1.7977-1.2826 3.6566-2.6087 7.2982-2.6087 3.6411 0 5.5 1.3261 7.302 2.6114.8271.5894 1.6673 1.1869 2.6689 1.6764-2.8719 3.9156-6.3835 7.4599-10.523 10.4569-21.4167 15.5052-51.4572 10.6964-66.963-10.7213z" fill="#ffffff" data-original="#000000"></path><path d="m127.6915 72.962 3.0728 1.6119.5854 3.4214c.2519 1.4701 1.6317 2.4707 3.1056 2.2575l3.4359-.4984 2.4863 2.4218c.5339.5205 1.2268.7804 1.9191.7804s1.3852-.26 1.9191-.7804l2.4863-2.4218 3.4359.4984c1.4722.2138 2.8542-.7874 3.1056-2.2575l.5854-3.4209 3.0728-1.6124c1.3224-.6939 1.8493-2.316 1.187-3.6545l-1.5388-3.1109 1.5388-3.1109c.6623-1.3385.1354-2.9605-1.187-3.6545l-3.0728-1.6124-.5854-3.4208c-.2514-1.4701-1.6344-2.4712-3.1056-2.2575l-3.4359.4984-2.4863-2.4218c-1.0678-1.0409-2.7704-1.0409-3.8382 0l-2.4863 2.4218-3.4359-.4984c-1.4727-.2127-2.8537.7874-3.1056 2.2575l-.5854 3.4208-3.0728 1.6124c-1.3224.6939-1.8493 2.316-1.187 3.6545l1.5388 3.1109-1.5388 3.1109c-.6622 1.3385-.1353 2.9606 1.187 3.6545zm5.8846-7.9846-.9512-1.9234 1.8987-.9963c.7584-.398 1.2885-1.1269 1.433-1.9712l.362-2.1178 2.1253.3083c.847.123 1.701-.1552 2.3139-.752l1.5388-1.4991 1.5388 1.4991c.6123.5967 1.469.875 2.3139.752l2.1254-.3083.362 2.1178c.1445.8443.6746 1.5732 1.433 1.9712l1.8987.9963-.9512 1.9234c-.3803.7686-.3803 1.6699 0 2.4385l.9512 1.9234-1.8987.9963c-.7584.398-1.2885 1.1269-1.433 1.9712l-.362 2.1178-2.1254-.3083c-.8449-.1241-1.7016.1552-2.3139.752l-1.5388 1.4991-1.5388-1.4991c-.5172-.5038-1.2074-.7804-1.9191-.7804-.1311 0-.2632.0091-.3948.0285l-2.1248.3083-.3625-2.1184c-.1445-.8443-.6746-1.5732-1.433-1.9712l-1.8987-.9958.9512-1.9234c.3803-.7687.3803-1.6699 0-2.4385z" fill="#ffffff" data-original="#000000"></path></g></g></svg>