<svg width="27" height="28" viewBox="0 0 27 28" fill="none" xmlns="http://www.w3.org/2000/svg">
<path opacity="0.3" d="M1.28278 9L0 9.92849L2.57244 13.0052C3.06192 13.5901 3.06192 14.4099 2.57244 14.9948L0 18.0715L1.28278 19L4.63289 14.9948C5.12237 14.4093 5.12237 13.5901 4.63289 13.0047L1.28278 9Z" fill="white"/>
<path opacity="0.5" d="M7.1926 4.91968L5 6.60588L9.39695 12.1935C10.2336 13.2556 10.2336 14.7444 9.39695 15.8066L5 21.3942L7.1926 23.0804L12.9188 15.8066C13.7554 14.7433 13.7554 13.2556 12.9188 12.1924L7.1926 4.91968Z" fill="white"/>
<path d="M13.5464 2.60031L20.6099 11.5725C21.7345 12.9999 21.7345 15.0002 20.6099 16.4277L13.5464 25.3998L16.9282 27.9994L26.0388 16.4277C27.1634 15.0002 27.1634 12.9999 26.0388 11.5725L16.9296 0.000732422L13.5477 2.60031H13.5464Z" fill="white"/>
</svg>
