<svg width="39" height="39" viewBox="0 0 39 39" fill="none" xmlns="http://www.w3.org/2000/svg">
<path d="M19.7909 38.7748C9.37093 38.6548 1.02093 30.1148 1.14093 19.7048C1.02093 9.28477 9.37093 0.744766 19.7909 0.634766C30.2109 0.754766 38.5509 9.29477 38.4409 19.7048C38.5609 30.1248 30.2109 38.6548 19.7909 38.7748V38.7748Z" stroke="white" stroke-width="0.43" stroke-miterlimit="10"/>
<path d="M17.2514 29.775H21.3114V19.615H24.1414L24.4414 16.215H21.3114V14.275C21.3114 13.475 21.4714 13.155 22.2514 13.155H24.4514V9.625H21.6414C18.6214 9.625 17.2614 10.955 17.2614 13.495V16.205H15.1514V19.645H17.2614V29.755L17.2514 29.775Z" fill="white" stroke="white"/>
</svg>
