<svg width="40" height="40" viewBox="0 0 40 40" fill="none" xmlns="http://www.w3.org/2000/svg">
<path d="M19.8422 38.805C9.29219 38.805 0.742188 30.255 0.742188 19.705C0.742188 9.15498 9.29219 0.60498 19.8422 0.60498C30.3922 0.60498 38.9422 9.15498 38.9422 19.705C38.9422 30.255 30.3922 38.805 19.8422 38.805Z" stroke="white" stroke-width="0.43" stroke-miterlimit="10"/>
<path d="M19.8422 12.2152C22.2822 12.2152 22.5722 12.2152 23.5322 12.2652C24.1122 12.2652 24.6922 12.3752 25.2322 12.5752C26.0322 12.8852 26.6622 13.5152 26.9622 14.3052C27.1622 14.8452 27.2722 15.4252 27.2822 16.0052C27.3222 16.9652 27.3322 17.2552 27.3322 19.6952C27.3322 22.1352 27.3321 22.4252 27.2822 23.3852C27.2822 23.9652 27.1722 24.5452 26.9622 25.0852C26.6522 25.8852 26.0222 26.5152 25.2322 26.8152C24.6922 27.0152 24.1122 27.1252 23.5322 27.1352C22.5722 27.1752 22.2822 27.1852 19.8422 27.1852C17.4022 27.1852 17.1122 27.1752 16.1522 27.1352C15.5722 27.1352 14.9921 27.0252 14.4521 26.8152C13.6521 26.5052 13.0222 25.8752 12.7222 25.0852C12.5222 24.5452 12.4122 23.9652 12.4022 23.3852C12.3622 22.4252 12.3522 22.1352 12.3522 19.6952C12.3522 17.2552 12.3522 16.9652 12.4022 16.0052C12.4022 15.4252 12.5122 14.8452 12.7222 14.3052C13.0322 13.5052 13.6621 12.8752 14.4521 12.5752C14.9921 12.3752 15.5722 12.2652 16.1522 12.2652C17.1122 12.2252 17.4022 12.2152 19.8422 12.2152ZM19.8422 10.5652C17.3622 10.5652 17.0522 10.5752 16.0722 10.6252C15.3122 10.6452 14.5622 10.7852 13.8522 11.0552C12.6222 11.5252 11.6522 12.4952 11.1822 13.7252C10.9122 14.4352 10.7722 15.1852 10.7522 15.9452C10.7122 16.9252 10.7021 17.2252 10.7021 19.7152C10.7021 22.2052 10.7122 22.5052 10.7522 23.4852C10.7622 24.2452 10.9122 24.9952 11.1822 25.7052C11.6522 26.9352 12.6222 27.9052 13.8522 28.3752C14.5622 28.6452 15.3122 28.7852 16.0722 28.7952C17.0522 28.8352 17.3622 28.8552 19.8422 28.8552C22.3222 28.8552 22.6322 28.8452 23.6122 28.7952C24.3722 28.7852 25.1222 28.6352 25.8322 28.3652C27.0622 27.8952 28.0322 26.9252 28.5022 25.6952C28.7722 24.9852 28.9121 24.2352 28.9221 23.4752C28.9622 22.5052 28.9722 22.1952 28.9722 19.7052C28.9722 17.2152 28.9622 16.9152 28.9221 15.9352C28.9021 15.1752 28.7622 14.4252 28.5022 13.7152C28.0322 12.4852 27.0622 11.5152 25.8322 11.0452C25.1222 10.7752 24.3722 10.6352 23.6122 10.6152C22.6322 10.5752 22.3222 10.5552 19.8422 10.5552" fill="white"/>
<path d="M19.8423 15.0151C17.2523 15.0151 15.1523 17.1151 15.1523 19.7051C15.1523 22.2951 17.2523 24.3951 19.8423 24.3951C22.4323 24.3951 24.5323 22.2951 24.5323 19.7051C24.5323 17.1151 22.4323 15.0151 19.8423 15.0151ZM19.8423 22.7551C18.1623 22.7551 16.7923 21.3951 16.7923 19.7051C16.7923 18.0251 18.1523 16.6551 19.8423 16.6551C21.5223 16.6551 22.8923 18.0151 22.8923 19.7051C22.8923 21.3951 21.5323 22.7551 19.8423 22.7551Z" fill="white"/>
<path d="M25.9422 14.8852C25.9422 15.4952 25.4522 15.9852 24.8422 15.9852C24.2322 15.9852 23.7422 15.4952 23.7422 14.8852C23.7422 14.2752 24.2322 13.7852 24.8422 13.7852C25.4522 13.7852 25.9422 14.2752 25.9422 14.8852Z" fill="white" stroke="white"/>
</svg>
