<svg width="38" height="38" viewBox="0 0 38 38" fill="none" xmlns="http://www.w3.org/2000/svg">
<path d="M19.3423 37.0548C9.20231 37.0348 1.00231 28.7948 1.03231 18.6548C1.05231 8.51481 9.2923 0.314809 19.4323 0.344809C29.5523 0.364809 37.7423 8.58481 37.7423 18.7048C37.7323 28.8548 29.4923 37.0748 19.3423 37.0648V37.0548Z" stroke="white" stroke-width="0.43" stroke-miterlimit="10"/>
<path d="M20.2319 20.2046C20.2319 18.6346 20.9519 17.7046 22.3319 17.7046C23.6019 17.7046 24.2119 18.6046 24.2119 20.2046V26.0546H27.6419V19.0046C27.6419 16.0246 25.9519 14.5746 23.5919 14.5746C22.2319 14.5546 20.9519 15.2546 20.2319 16.4146V14.9146H16.9219V26.0546H20.2319V20.2046Z" fill="white" stroke="white"/>
<path d="M14.7225 14.915H11.2725V26.055H14.7225V14.915Z" fill="white" stroke="white"/>
<path d="M12.9824 13.4548C14.1224 13.4548 15.0424 12.5548 15.0524 11.4148C15.0524 10.2748 14.1524 9.35481 13.0124 9.34481C11.8724 9.33481 10.9524 10.2448 10.9424 11.3848C10.9424 11.3848 10.9424 11.3948 10.9424 11.4048C10.9424 12.5348 11.8524 13.4548 12.9824 13.4648" fill="white"/>
<path d="M12.9824 13.4548C14.1224 13.4548 15.0424 12.5548 15.0524 11.4148C15.0524 10.2748 14.1524 9.35481 13.0124 9.34481C11.8724 9.33481 10.9524 10.2448 10.9424 11.3848C10.9424 11.3848 10.9424 11.3948 10.9424 11.4048C10.9424 12.5348 11.8524 13.4548 12.9824 13.4648" stroke="white"/>
</svg>
