<svg width="40" height="40" viewBox="0 0 40 40" fill="none" xmlns="http://www.w3.org/2000/svg">
<g clip-path="url(#clip0_17_146)">
<path d="M33.433 26.6665H3.89967C3.03443 26.6665 2.33301 27.3679 2.33301 28.2332V28.4332C2.33301 29.2984 3.03443 29.9998 3.89967 29.9998H33.433C34.2983 29.9998 34.9997 29.2984 34.9997 28.4332V28.2332C34.9997 27.3679 34.2983 26.6665 33.433 26.6665Z" fill="white"/>
<path d="M33.4333 10H6.56667C5.70142 10 5 10.7014 5 11.5667V11.7667C5 12.6319 5.70142 13.3333 6.56667 13.3333H33.4333C34.2986 13.3333 35 12.6319 35 11.7667V11.5667C35 10.7014 34.2986 10 33.4333 10Z" fill="white"/>
<path d="M33.4333 18.6665H10.5667C9.70142 18.6665 9 19.3679 9 20.2332V20.4332C9 21.2984 9.70142 21.9998 10.5667 21.9998H33.4333C34.2986 21.9998 35 21.2984 35 20.4332V20.2332C35 19.3679 34.2986 18.6665 33.4333 18.6665Z" fill="white"/>
</g>
<defs>
<clipPath id="clip0_17_146">
<rect width="40" height="40" fill="white"/>
</clipPath>
</defs>
</svg>
