<svg width="322" height="95" viewBox="0 0 322 95" fill="none" xmlns="http://www.w3.org/2000/svg">
<g clip-path="url(#clip0_1_798)">
<path d="M62.7977 56.6092C64.2224 54.6605 64.9265 52.1387 64.9265 49.0438C64.9265 47.177 64.6645 45.5394 64.2224 44.082C62.6176 45.6213 61.5859 47.5209 61.5859 49.8298C61.5859 51.713 61.9789 54.1201 62.8141 56.6092H62.7977Z" fill="#F09021"/>
<path d="M80.6963 38.7109C81.1876 41.4293 81.4332 44.1803 81.4332 46.8659C81.4332 56.9859 79.4681 64.2238 76.4551 69.3984C76.9627 69.4475 77.4704 69.4967 78.0107 69.4967C92.1755 69.4967 95.2377 56.3145 95.2377 50.5831C95.2377 41.4129 85.8546 38.9566 80.6963 38.7109Z" fill="#F09021"/>
<path d="M66.4499 49.0436C66.4499 52.8919 65.3691 55.9213 63.3877 58.2139C63.9281 59.5403 64.5995 60.8503 65.3855 62.0948C68.1693 58.9016 69.5776 54.3165 69.5776 48.3231C69.5776 45.8013 69.1682 43.4596 68.4149 41.3145C67.3505 41.8057 66.3516 42.3789 65.4674 43.0339C66.0733 44.7697 66.4499 46.7511 66.4499 49.06V49.0436Z" fill="#F09021"/>
<path d="M71.3628 48.3067C71.3628 55.5446 69.3978 60.3753 66.4502 63.5685C67.2035 64.5183 68.0386 65.4026 68.972 66.1886C72.0997 62.2585 74.1794 56.3633 74.1794 47.5698C74.1794 44.8842 73.8191 42.1823 73.1314 39.6113C72.1161 39.8733 71.0844 40.2008 70.0692 40.5775C70.8879 42.9519 71.3628 45.5228 71.3628 48.2903V48.3067Z" fill="#F09021"/>
<path d="M76.4224 47.5873C76.4224 56.9868 74.1299 63.2749 70.8057 67.4998C71.7391 68.0565 72.7543 68.515 73.8515 68.8589C76.9301 63.9463 78.8951 56.8885 78.8951 46.8668C78.8951 45.4585 78.7805 42.3963 78.0927 38.7773C77.2248 38.8428 76.275 38.9738 75.2925 39.154C76.0458 41.905 76.4388 44.7707 76.4388 47.5873H76.4224Z" fill="#F09021"/>
<path d="M48.1089 26.3149C55.9691 26.3149 62.4374 29.2952 66.564 34.2733C67.4319 33.1107 68.136 31.8498 68.7255 30.6216C64.9919 25.9382 59.2769 22.8105 51.3676 22.8105C47.2083 22.8105 39.5118 23.8094 32.7324 26.3804C32.847 27.1992 33.1254 28.0179 33.5348 28.8203C38.3492 27.0845 43.7694 26.3149 48.1089 26.3149Z" fill="#EFB51D"/>
<path d="M70.8221 20.3222C70.2817 13.2152 66.5154 1.50684 53.4478 1.50684C43.3442 1.50684 37.2526 11.0537 34.4688 18.2752C42.1652 15.868 50.0581 14.9019 54.6596 14.9019C61.5045 14.9019 66.7938 16.998 70.8221 20.3222Z" fill="#EFB51D"/>
<path d="M36.8107 32.8003C39.1851 32.2599 41.887 31.9652 44.851 31.9652C49.2723 31.9652 57.6729 32.7512 62.5855 38.0896C63.6172 37.4018 64.5506 36.5994 65.3693 35.7151C61.5866 30.9663 55.5114 28.1006 48.1097 28.1006C44.0486 28.1006 38.9886 28.7884 34.4854 30.3276C35.124 31.1955 35.91 32.0307 36.8107 32.8167V32.8003Z" fill="#EFB51D"/>
<path d="M61.1771 38.9076C56.592 34.1914 48.9283 33.4873 44.8672 33.4873C42.4928 33.4873 40.3149 33.6838 38.3662 34.0441C43.3771 37.7449 50.5659 40.2667 55.2165 40.2667C57.4927 40.2667 59.4741 39.7427 61.1771 38.9076Z" fill="#EFB51D"/>
<path d="M51.368 20.5838C59.5229 20.5838 65.5491 23.7442 69.6593 28.4276C70.3307 26.5608 70.7073 24.8741 70.8383 23.6623C67.2521 20.027 62.1103 17.4561 54.6594 17.4561C50.058 17.4561 41.4281 18.5696 33.4533 21.3206C33.1586 22.3195 32.9621 23.1874 32.8311 23.9407C39.414 21.5663 46.6519 20.5838 51.3844 20.5838H51.368Z" fill="#EFB51D"/>
<path d="M17.2909 40.2991C17.2909 34.3876 21.0573 30.0808 26.2319 27.0023C25.4786 26.511 24.6762 26.1016 23.8575 25.8232C18.994 29.0001 15.5879 33.2085 15.5879 38.6779C15.5879 43.5414 17.3892 49.7968 20.6151 55.9376C21.1555 55.8885 21.6632 55.7902 22.1544 55.6428C19.0431 50.1898 17.2909 44.6222 17.2909 40.3155V40.2991Z" fill="#CCCD2B"/>
<path d="M21.5156 41.938C21.5156 36.8289 24.8071 33.1772 29.3758 30.6718C28.9992 29.8694 28.557 29.1325 28.033 28.543C23.1531 31.2449 19.5342 35.0604 19.5342 40.3005C19.5342 44.3288 21.1717 49.5526 24.0865 54.6453C24.5614 54.3015 25.0199 53.9084 25.4129 53.4499C22.9239 49.3561 21.5156 45.1804 21.5156 41.938Z" fill="#CCCD2B"/>
<path d="M20.4677 25.12C19.8127 25.0545 19.2068 25.0381 18.6501 25.0381C12.7222 25.0381 0.03125 29.9343 0.03125 38.9572C0.03125 48.635 10.7899 54.612 17.7985 55.7747C14.7527 49.6503 13.0497 43.4932 13.0497 38.6624C13.0497 32.9965 16.03 28.5424 20.4677 25.12Z" fill="#CCCD2B"/>
<path d="M25.5442 43.5749C25.5442 40.1852 27.3128 37.3686 30.4568 35.3544C30.3913 34.2245 30.2276 33.2092 29.9819 32.3086C26.0682 34.5029 23.3008 37.647 23.3008 41.9373C23.3008 44.7866 24.4471 48.3892 26.5267 51.9918C26.9361 51.3695 27.28 50.6818 27.6239 49.9776C26.2975 47.6687 25.5442 45.4089 25.5442 43.5585V43.5749Z" fill="#CCCD2B"/>
<path d="M27.0664 43.5744C27.0664 44.9336 27.5249 46.5547 28.3437 48.2414C29.883 44.0657 30.4234 39.3332 30.5216 37.1553C28.3109 38.8256 27.0828 41.0035 27.0828 43.5744H27.0664Z" fill="#CCCD2B"/>
<path d="M49.7305 63.0612C42.7218 63.0612 36.7448 59.9826 32.4872 56.0361C31.7012 56.3473 30.9152 56.7075 30.1455 57.0842C35.0417 62.7992 42.2633 67.4825 50.8604 67.4825C55.0197 67.4825 58.4749 66.7456 61.2424 65.3046C60.6856 63.7817 59.9487 62.4717 59.0481 61.3254C56.5426 62.4389 53.4477 63.0448 49.7141 63.0448L49.7305 63.0612Z" fill="#00A6AA"/>
<path d="M21.9581 62.8477C18.9614 65.828 17.0127 69.2668 17.0127 72.6238C17.0127 85.7568 37.4492 93.1421 45.3749 93.1421C54.758 93.1421 59.1466 87.1979 61.0461 80.8933C58.2132 81.5975 55.4621 81.8431 53.0549 81.8431C39.971 81.8431 29.0486 73.1642 21.9581 62.8477Z" fill="#00A6AA"/>
<path d="M42.1979 53.9736C39.5615 53.9736 36.7613 54.5304 34.043 55.4638C38.0058 58.9026 43.4097 61.5391 49.7306 61.5391C53.0548 61.5391 55.7731 61.0314 58.0165 60.1308C53.0712 54.9889 45.2601 53.9736 42.1979 53.9736Z" fill="#00A6AA"/>
<path d="M50.8608 69.2835C41.5923 69.2835 33.8304 64.1416 28.623 57.9189C28.0171 58.2465 27.444 58.5903 26.8545 58.9506C32.6186 66.7944 41.4122 73.3609 51.958 73.3609C55.364 73.3609 58.9994 72.8369 62.3072 71.3468C62.2745 69.7747 62.0943 68.3501 61.7668 67.0564C58.3607 68.7267 54.4634 69.2998 50.8444 69.2998L50.8608 69.2835Z" fill="#00A6AA"/>
<path d="M51.9743 75.5885C40.6752 75.5885 31.2594 68.5307 25.1022 60.1465C24.6437 60.4904 24.2344 60.8342 23.8086 61.1945C30.457 70.987 40.7244 79.2729 53.0714 79.2729C55.9044 79.2729 58.8683 78.9291 61.734 78.0612C62.0287 76.571 62.1925 75.0972 62.2744 73.7381C58.6718 75.1627 54.9873 75.5721 51.9743 75.5721V75.5885Z" fill="#00A6AA"/>
<path d="M247.938 0V16.9649C249.395 16.9649 250.361 15.7859 250.361 13.6243V0H247.938ZM210.733 13.1331C211.175 14.3448 212.272 15.0326 213.615 15.0326H219.707V13.1331C220.149 14.3448 221.246 15.0326 222.589 15.0326H223.981C224.996 15.0326 225.569 14.8525 226.093 14.4431C226.552 14.0828 227.092 13.0184 227.321 12.1342C227.092 14.0992 230.776 14.8197 232.954 15.0326C234.903 15.2291 235.018 13.9518 235.018 13.1331C235.46 14.3448 236.557 15.0326 237.9 15.0326H243.909V0H241.486V13.1331H237.589C235.918 13.1331 235.034 12.1014 235.034 10.4475C235.034 7.40168 234.379 4.56873 231.579 4.56873C227.141 4.56873 226.47 9.56323 224.963 12.0195C224.554 12.7073 224.193 13.1494 223.047 13.1494H222.261C220.591 13.1494 219.707 12.1178 219.707 10.4639V0H217.283V13.1331H213.287C211.634 13.1331 210.733 12.1014 210.733 10.4475V0H208.326V13.1331H196.273C192.72 13.1331 193.293 10.2674 195.013 8.28595L194.407 7.71281C191.754 9.89073 190.247 12.8874 192.458 14.4922C192.966 14.8689 193.522 15.0326 194.669 15.0326H210.749V13.1331H210.733ZM232.594 8.92459V12.8711C230.334 12.5763 228.762 11.9377 227.78 10.8241C228.058 9.95624 228.222 9.3176 228.533 8.41695C229.09 6.79579 229.777 5.27287 231.153 5.63313C232.152 5.87876 232.594 7.28705 232.594 8.92459ZM138.55 0V16.9649C139.991 16.9649 140.957 15.7859 140.957 13.6243V0H138.55ZM125.532 15.0326V13.1331C125.974 14.3448 127.071 15.0326 128.43 15.0326H134.505V0H132.098V13.1331H128.103C126.432 13.1331 125.532 12.1014 125.532 10.4475V0H123.125V13.1331H119.162V12.1505C119.162 8.18769 116.607 4.89624 113.037 7.5818C110.581 9.41585 108.993 12.8711 111.203 14.4922C111.727 14.8689 112.268 15.0326 113.43 15.0326H125.532ZM116.542 13.1167C116.132 13.1167 115.33 13.1167 115.019 13.1167C111.465 13.1167 111.891 9.66148 113.889 8.12219C115.657 6.74666 116.574 8.95734 116.574 11.8067L116.542 13.1003V13.1167ZM293.969 12.8711C291.709 12.5763 290.137 11.9213 289.138 10.8078C289.417 9.93986 289.597 9.30122 289.892 8.40057C290.448 6.77941 291.152 5.2565 292.512 5.61676C293.51 5.87876 293.953 7.27067 293.953 8.90821V12.8547L293.969 12.8711ZM276.251 8.71171L277.43 6.99229C280.738 7.30342 280.214 10.0381 278.625 11.7575C278.298 10.5294 277.201 9.13747 276.251 8.71171ZM266.802 13.1167C266.393 13.1167 265.59 13.1167 265.279 13.1167C261.709 13.1167 262.152 9.66148 264.149 8.12219C265.918 6.74666 266.835 8.95734 266.835 11.823L266.802 13.1167ZM292.954 4.55236C288.5 4.55236 287.845 9.54685 286.338 12.0032C285.912 12.6909 285.552 13.1331 284.422 13.1331H279.526C280.983 11.7575 282.916 8.35145 281.442 6.68116C280.099 5.17462 277.725 5.17462 276.12 5.02724L273.614 8.71171C275.94 9.79248 276.758 11.0206 277.495 13.1331H269.39V12.1505C269.39 8.18769 266.835 4.89624 263.249 7.56543C260.792 9.39947 259.204 12.8711 261.415 14.4922C261.922 14.8689 262.479 15.0326 263.642 15.0326H275.71C276.873 15.0326 277.594 14.8525 278.068 14.3612C278.494 14.8361 279.264 15.0326 280.443 15.0326H285.323C286.338 15.0326 286.911 14.8525 287.435 14.4431C287.877 14.0828 288.434 13.0184 288.663 12.1342C288.434 14.0992 292.135 14.8034 294.296 15.0326C296.229 15.2291 296.343 13.9518 296.343 13.1331V10.4475C296.343 7.40168 295.705 4.56873 292.905 4.56873L292.954 4.55236ZM177.671 13.1167C174.691 13.1167 173.577 10.9879 173.512 8.79358C173.446 6.28815 175.919 5.46938 179.685 6.55016L179.947 5.82964C178.588 5.30563 177.196 4.73249 175.739 4.73249C172.398 4.73249 170.81 6.3864 170.81 9.05559C170.81 10.906 171.481 12.2652 172.709 13.1003H167.42C165.75 13.1003 164.865 12.0687 164.865 10.4147V8.00756H162.458V13.1003H157.136C155.482 13.1003 154.582 12.0687 154.582 10.4147V4.84712H152.175V13.1167H147.819C146.607 13.1167 146.738 12.4125 147.196 11.7412L146.541 11.299C145.018 12.9366 145.297 15.0162 148.048 15.0162H154.582V13.1167C155.024 14.3285 156.121 15.0162 157.464 15.0162H164.865V13.1167C165.308 14.3285 166.405 15.0162 167.747 15.0162H180.504V13.1167H177.655H177.671ZM316.829 9.20297C315.47 6.81216 313.849 5.07637 310.77 5.07637L310.606 5.96064C315.437 6.79579 313.079 9.84161 317.173 13.1167H303.892V0H301.469V11.692C301.469 13.8536 302.435 15.0326 303.892 15.0326H321.774V13.1331C319.351 12.4289 318.188 11.6102 316.829 9.21934V9.20297ZM164.341 19.4867H161.967V17.3088H164.341V19.4867ZM268.292 3.76634H265.918V1.60479H268.292V3.78271V3.76634ZM264.657 3.76634H262.266V1.60479H264.657V3.78271V3.76634ZM315.404 19.4867H313.03V17.3252H315.404V19.4867ZM197.125 6.48465C198.713 5.86239 199.827 5.79689 201.383 6.30452L202.66 4.73249C199.614 4.68336 198.631 3.2587 199.336 2.24343C200.023 1.2609 201.252 1.96505 202.185 2.58731L203.462 1.01527C201.874 -0.0655016 200.236 -0.196505 198.713 1.70304C198.189 2.37443 197.878 3.78271 198.795 4.61786C197.845 4.83074 197.01 5.453 196.585 5.84601L197.141 6.4519L197.125 6.48465Z" fill="black"/>
<path d="M218.332 36.8447C217.922 36.8447 217.12 36.8447 216.809 36.8447C213.239 36.8447 213.681 33.4059 215.679 31.8503C217.448 30.4747 218.365 32.6854 218.365 35.5511V36.8284L218.332 36.8447ZM236.689 32.4561L237.868 30.7367C241.175 31.0642 240.651 33.7662 239.063 35.502C238.736 34.2738 237.638 32.8819 236.689 32.4561ZM255.373 23.7281V36.8611H251.377C249.707 36.8611 248.806 35.8295 248.806 34.1756V23.7281H246.399V36.8611H239.964C241.421 35.4856 243.353 32.0795 241.88 30.4092C240.553 28.9027 238.162 28.9027 236.574 28.7553L234.069 32.4398C236.394 33.5205 237.213 34.7323 237.966 36.8611H229.844C228.173 36.8611 227.289 35.8295 227.289 34.1756V23.7281H224.882V36.8611H220.919V35.8786C220.919 31.9158 218.365 28.6243 214.795 31.3099C212.338 33.1439 210.75 36.5991 212.961 38.2203C213.485 38.5969 214.025 38.7607 215.188 38.7607H218.053C217.513 41.9047 216.776 44.8359 212.486 46.8665L212.731 47.587C216.383 46.4898 219.789 44.9342 220.674 38.7607H227.306V36.8611C227.748 38.0729 228.845 38.7607 230.188 38.7607H236.181C237.344 38.7607 238.064 38.5805 238.539 38.0893C238.965 38.5478 239.734 38.7607 240.913 38.7607H248.823V36.5009C248.823 37.2705 249.183 37.8436 249.691 38.2203C250.198 38.5969 250.755 38.7607 251.918 38.7607H257.797V23.7281H255.389H255.373ZM182.339 36.8447C181.929 36.8447 181.127 36.8447 180.832 36.8447C177.279 36.8447 177.688 33.3895 179.702 31.8503C181.471 30.4747 182.388 32.6854 182.388 35.5347L182.355 36.812L182.339 36.8447ZM184.975 35.8786C185.024 31.9321 182.421 28.6243 178.851 31.2935C176.394 33.1275 174.806 36.5827 177.017 38.2039C177.541 38.5805 178.081 38.7443 179.244 38.7443H182.109C181.569 41.8884 180.832 44.8196 176.542 46.8665L176.771 47.587C180.423 46.5062 183.812 44.7868 184.713 38.7607C184.861 37.729 184.959 36.7956 184.975 35.8786ZM119.162 36.8611V35.8786C119.162 31.9158 116.608 28.6243 113.022 31.2935C110.565 33.1275 108.977 36.5827 111.188 38.2039C111.695 38.5805 112.252 38.7443 113.415 38.7443H126.04V36.8447C126.482 38.0565 127.579 38.7443 128.922 38.7443H135.128V36.8447C135.571 38.0565 136.668 38.7443 138.011 38.7443H145.822C147.705 38.7443 147.869 37.6635 147.869 36.8447C148.311 38.0565 149.408 38.7443 150.751 38.7443H157.071V36.8447C157.514 38.0565 158.594 38.7443 159.954 38.7443H165.947V23.7281H163.54V36.8611H159.642C157.972 36.8611 157.088 35.8295 157.088 34.1756V31.7684H154.681V36.8611H150.456C148.802 36.8611 148.049 35.5675 147.869 34.2902C147.59 32.4561 146.771 29.5905 144.168 29.5905C142.678 29.5905 140.467 30.5566 140.974 33.0457C141.318 34.7487 142.841 36.026 144.168 36.8775H137.716C136.045 36.8775 135.161 35.8458 135.161 34.1919V31.7848H132.754V36.8775H128.627C126.974 36.8775 126.073 35.8458 126.073 34.1919V31.7848H123.666V36.8775H119.195L119.162 36.8611ZM142.94 31.8339C145.445 30.3437 146.133 35.3546 146.133 36.8447C142.89 35.0926 141.564 32.6526 142.94 31.8339ZM116.526 36.8447C116.117 36.8447 115.314 36.8447 115.019 36.8447C111.45 36.8447 111.875 33.3895 113.873 31.8503C115.642 30.4747 116.559 32.6854 116.559 35.5347L116.526 36.812V36.8447ZM118.016 27.4944H115.642V25.3329H118.016V27.4944ZM135.128 29.656H132.754V27.4944H135.128V29.656ZM114.381 27.4944H111.99V25.3329H114.381V27.4944ZM146.853 27.4944H144.479V25.3329H146.853V27.4944ZM143.234 27.4944H140.843V25.3329H143.234V27.4944ZM158.906 29.656H156.515V27.4944H158.906V29.656ZM155.27 29.656H152.896V27.4944H155.27V29.656ZM127.825 43.2311H125.434V41.0696H127.825V43.2311ZM124.19 43.2311H121.799V41.0696H124.19V43.2311ZM205.739 36.5664V32.6199C205.739 30.9824 205.297 29.5905 204.298 29.3284C202.923 28.9682 202.235 30.4911 201.678 32.1123C201.4 32.8983 201.039 34.0937 200.761 34.9616C202.3 35.2072 204.118 35.9114 205.739 36.5827V36.5664ZM204.707 28.2477C207.508 28.2477 208.163 31.0642 208.163 34.1264V36.812C208.163 37.6308 207.901 39.4648 206.099 38.7115C203.954 37.8109 200.941 36.1897 199.598 37.074C198.714 37.6635 198.829 38.5642 198.829 40.4965V45.0816C198.829 47.2267 197.863 48.4221 196.405 48.4221V39.1373C196.405 36.9594 197.208 35.9277 198.223 35.2563C198.272 35.2236 198.321 35.1908 198.37 35.1581C199.647 32.5708 200.63 28.264 204.707 28.264V28.2477ZM170.27 23.6953V40.6602C171.711 40.6602 172.677 39.4812 172.677 37.3196V23.7281H170.27V23.6953Z" fill="black"/>
<path d="M120.505 55.6103H122.519V57.4608H120.505V55.6103ZM120.57 59.5896H122.437V68.4159H120.57V59.5896ZM125.434 59.5896H127.317V61.6856H127.35C127.644 61.047 128.512 59.3931 130.445 59.3931C132 59.3931 132.672 60.6867 132.672 61.964V68.4159H130.789V62.8974C130.789 61.7839 130.625 60.785 129.675 60.785C127.825 60.785 127.301 63.6834 127.301 64.7806V68.4323H125.417V59.6059L125.434 59.5896ZM142.448 68.1703C142.448 70.6429 141.629 72.608 138.092 72.608C136.946 72.608 136.225 72.4279 135.554 72.2641V70.4301C136.143 70.7903 137.191 71.5108 138.387 71.5108C140.352 71.5108 140.581 70.1353 140.581 68.1866V67.2041H140.532C140.27 67.6299 139.762 68.4323 138.239 68.4323C135.898 68.4323 134.915 66.5327 134.915 63.9127C134.915 61.2926 135.685 59.3931 138.239 59.3931C139.68 59.3931 140.303 60.4411 140.532 61.047H140.581V59.5896H142.448V68.1703ZM138.747 67.3515C140.385 67.3515 140.532 65.4683 140.532 64.0109C140.532 62.5535 140.303 60.5721 138.747 60.5721C137.191 60.5721 136.962 62.488 136.962 63.9127C136.962 65.4192 137.257 67.3515 138.747 67.3515ZM153.665 55.6103H155.777L160.068 68.4159H157.955L156.776 64.6168H152.355L151.192 68.4159H149.391L153.665 55.6103ZM152.748 63.3886H156.4L154.615 57.4444H154.566L152.748 63.3886ZM163.425 60.8013H163.457C163.85 60.2446 164.456 59.3767 165.914 59.3767C168.305 59.3767 169.238 61.3745 169.238 64.0273C169.238 67.286 167.633 68.6288 165.308 68.6288C161.853 68.6288 161.542 66.3198 161.542 64.0273V55.594H163.408V60.8013H163.425ZM165.324 67.8428C166.847 67.8428 167.207 65.8286 167.207 64.0273C167.207 62.4716 166.847 60.4575 165.324 60.4575C163.801 60.4575 163.507 62.357 163.507 64.0273C163.507 66.2707 163.785 67.81 165.324 67.8428ZM176.525 66.9585H176.492C176.23 67.548 175.624 68.6124 174.183 68.6124C171.645 68.6124 170.859 66.5164 170.859 63.9945C170.859 61.3417 171.842 59.3767 174.183 59.3767C175.69 59.3767 176.23 60.3265 176.492 60.8013H176.525V55.594H178.408V68.3995H176.525V66.9585ZM174.691 67.417C176.23 67.417 176.443 65.452 176.443 63.9945C176.443 62.4553 176.296 60.4411 174.691 60.4411C173.217 60.4411 172.906 62.4389 172.906 63.9945C172.906 65.452 173.184 67.417 174.691 67.417ZM186.596 66.3035H186.563C186.252 66.9585 185.433 68.6124 183.468 68.6124C181.913 68.6124 181.241 67.3024 181.241 66.0251V59.5732H183.108V65.1081C183.108 66.2052 183.288 67.2205 184.221 67.2205C186.072 67.2205 186.596 64.3057 186.596 63.2249V59.5732H188.463V68.3995H186.563V66.3035H186.596ZM191.459 55.594H193.343V68.3995H191.459V55.594ZM196.421 55.594H198.304V68.3995H196.421V55.594ZM205.64 67.1714H205.591C205.297 67.6954 204.527 68.6124 203.102 68.6124C201.678 68.6124 200.695 67.6299 200.695 66.4017C200.695 63.667 204.461 63.5524 205.624 63.4869V62.7009C205.624 61.7347 205.624 60.1299 204.38 60.1299C203.217 60.1299 203.02 61.0142 202.955 62.0622H200.99C201.088 60.7358 201.596 59.3439 204.396 59.3439C207.196 59.3439 207.507 60.9651 207.507 62.6845V68.3831H205.624V67.155L205.64 67.1714ZM205.64 64.2565C204.871 64.3057 202.742 64.4858 202.742 66.107C202.742 66.9094 203.201 67.4334 203.823 67.4334C204.461 67.4334 205.64 66.7947 205.64 65.3046V64.2565ZM210.357 55.594H212.223V61.6692H212.256C212.551 61.0306 213.402 59.3767 215.367 59.3767C216.923 59.3767 217.594 60.6703 217.594 61.9476V68.4159H215.728V62.8974C215.728 61.7675 215.564 60.785 214.614 60.785C212.764 60.785 212.24 63.667 212.24 64.7806V68.4323H210.373V55.6267L210.357 55.594ZM234.412 63.8472C234.412 66.1888 234.019 68.6124 230.073 68.6124C226.126 68.6124 225.717 66.2052 225.717 63.8472V55.594H227.764V63.8472C227.764 65.8941 227.911 67.4989 230.073 67.4989C232.234 67.4989 232.365 65.8941 232.365 63.8472V55.594H234.412V63.8472ZM237.245 59.5568H239.128V61.6529H239.177C239.456 61.0142 240.324 59.3603 242.272 59.3603C243.844 59.3603 244.516 60.654 244.516 61.9312V68.3831H242.632V62.8646C242.632 61.7511 242.452 60.7522 241.519 60.7522C239.669 60.7522 239.145 63.6507 239.145 64.7478V68.3995H237.261V59.5732L237.245 59.5568ZM247.381 55.5776H249.412V57.428H247.381V55.5776ZM247.447 59.5568H249.33V68.3831H247.447V59.5568ZM251.017 59.5568H252.998L255.274 65.8613H255.323L257.403 59.5568H259.139L256.011 68.3831H254.39L251.033 59.5568H251.017ZM267.048 68.1048C266.262 68.4159 265.591 68.6124 264.461 68.6124C262.021 68.6124 260.056 67.155 260.056 63.6015C260.056 61.1452 261.038 59.3603 263.822 59.3603C266.606 59.3603 267.228 61.2762 267.228 62.9793H261.939C261.939 64.7151 262.725 67.6299 265.361 67.6299C265.951 67.6299 266.508 67.5152 267.065 67.2532V68.1048H267.048ZM265.378 62.1277C265.378 61.44 265.132 60.1463 263.74 60.1463C262.348 60.1463 262.021 61.6365 261.988 62.1277H265.378ZM269.423 59.5568H271.289V61.8002H271.339C271.944 60.6212 272.599 59.4749 274.204 59.3603V61.2926C272.403 61.3581 271.289 61.964 271.289 64.3384V68.3831H269.423V59.5568ZM280.525 61.2926C279.919 60.8668 279.182 60.4247 278.298 60.4247C277.709 60.4247 277.054 60.6867 277.054 61.3417C277.054 62.9301 281.098 63.0775 281.098 65.9105C281.098 67.81 279.608 68.596 277.741 68.596C276.595 68.596 275.825 68.3504 275.383 68.203V66.4836C275.924 66.8439 276.808 67.4006 277.84 67.4006C278.871 67.4006 279.362 66.8439 279.362 66.2871C279.362 64.7314 275.383 64.4203 275.383 61.8985C275.383 60.5557 276.251 59.3603 278.462 59.3603C279.412 59.3603 280.23 59.6223 280.541 59.7042V61.2926H280.525ZM283.063 55.5776H285.077V57.428H283.063V55.5776ZM283.129 59.5568H284.996V68.3831H283.129V59.5568ZM292.643 68.465C292.266 68.5633 291.775 68.6124 291.333 68.6124C289.564 68.6124 288.549 68.072 288.549 66.369V60.523H287.141V59.5568H288.549V57.4771L290.416 56.3472V59.5568H292.839V60.523H290.416V65.6157C290.416 66.9094 290.547 67.5316 291.759 67.5316C292.053 67.5316 292.381 67.4989 292.627 67.3842V68.4486L292.643 68.465ZM296.72 68.4978L293.331 59.5568H295.279L297.588 65.8777H297.621L299.701 59.5568H301.469L296.917 72.3624H295.41L296.704 68.4978H296.72ZM305.841 63.9945C305.841 60.9978 307.135 59.3767 309.739 59.3767C312.342 59.3767 313.653 61.0142 313.653 63.9945C313.653 66.9749 312.342 68.6124 309.739 68.6124C307.135 68.6124 305.841 66.9749 305.841 63.9945ZM309.739 67.8428C311.425 67.8428 311.622 65.6157 311.622 63.9945C311.622 62.3734 311.425 60.1463 309.739 60.1463C308.052 60.1463 307.888 62.3734 307.888 63.9945C307.888 65.6157 308.101 67.8428 309.739 67.8428ZM316.551 60.5393H315.012V59.5732H316.551V58.7544C316.551 57.1169 316.944 55.3975 319.908 55.3975C320.678 55.3975 321.349 55.5121 321.791 55.6103V56.8876C321.414 56.7239 320.907 56.4782 320.137 56.4782C318.614 56.4782 318.434 57.5754 318.434 58.5252V59.5896H320.94V60.5557H318.434V68.4323H316.551V60.5557V60.5393ZM110.106 55.6103H112.153V61.2762H112.186L116.395 55.6103H118.442L113.938 61.4564L118.949 68.4159H116.526L112.202 62.2096H112.17V68.4159H110.123V55.6103H110.106Z" fill="black"/>
<path d="M126.351 90.2449C125.598 90.5233 124.795 90.6871 123.993 90.6871C121.193 90.6871 119.555 89.0004 119.555 85.709C119.555 83.0725 120.767 81.435 123.305 81.435C125.68 81.435 126.482 82.6959 126.482 84.5135H124.517C124.517 83.4655 124.402 82.221 123.24 82.221C122.159 82.221 121.602 83.4819 121.602 85.0703C121.602 87.2319 122.503 89.6882 124.779 89.6882C125.319 89.6882 125.827 89.5572 126.351 89.3607V90.2286V90.2449ZM128.267 77.685H130.297V79.5354H128.267V77.685ZM128.349 81.6479H130.216V90.4906H128.349V81.6479ZM139.566 90.1958C138.78 90.5069 138.092 90.6871 136.979 90.6871C134.539 90.6871 132.574 89.246 132.574 85.6762C132.574 83.2363 133.556 81.435 136.34 81.435C139.124 81.435 139.746 83.3509 139.746 85.0539H134.457C134.457 86.7897 135.226 89.7045 137.896 89.7045C138.469 89.7045 139.026 89.5899 139.599 89.3279V90.1794L139.566 90.1958ZM137.896 84.2188C137.896 83.531 137.65 82.2374 136.258 82.2374C134.801 82.2374 134.522 83.7112 134.49 84.2188H137.879H137.896ZM141.94 81.6479H143.824V83.7439H143.856C144.151 83.1053 145.003 81.435 146.951 81.435C148.507 81.435 149.178 82.745 149.178 84.0223V90.4742H147.295V84.9393C147.295 83.8258 147.131 82.8269 146.182 82.8269C144.331 82.8269 143.807 85.7253 143.807 86.8225V90.4906H141.924V81.6479H141.94ZM158.201 90.2449C157.448 90.5233 156.629 90.6871 155.843 90.6871C153.043 90.6871 151.405 89.0004 151.405 85.709C151.405 83.0725 152.617 81.435 155.155 81.435C157.53 81.435 158.316 82.6959 158.316 84.5135H156.367C156.367 83.4655 156.252 82.221 155.073 82.221C154.009 82.221 153.436 83.4819 153.436 85.0703C153.436 87.2319 154.353 89.6882 156.629 89.6882C157.169 89.6882 157.677 89.5572 158.201 89.3607V90.2286V90.2449ZM166.438 90.1794C165.652 90.4906 164.981 90.6707 163.851 90.6707C161.411 90.6707 159.429 89.2297 159.429 85.6598C159.429 83.2199 160.412 81.4186 163.196 81.4186C165.979 81.4186 166.602 83.3345 166.602 85.0376H161.312C161.312 86.7734 162.098 89.6882 164.751 89.6882C165.324 89.6882 165.881 89.5735 166.438 89.3115V90.1631V90.1794ZM164.768 84.2024C164.768 83.5146 164.522 82.221 163.146 82.221C161.771 82.221 161.411 83.6948 161.378 84.2024H164.768ZM178.474 89.2624H178.441C178.146 89.7864 177.377 90.6871 175.952 90.6871C174.527 90.6871 173.545 89.7209 173.545 88.4928C173.545 85.7581 177.311 85.6107 178.474 85.5779V84.8083C178.474 83.8422 178.474 82.2374 177.229 82.2374C176.083 82.2374 175.87 83.138 175.805 84.186H173.84C173.938 82.8596 174.446 81.4677 177.229 81.4677C180.013 81.4677 180.357 83.0725 180.357 84.8083V90.5069H178.474V89.2952V89.2624ZM178.474 86.3476C177.704 86.4131 175.575 86.5605 175.575 88.198C175.575 89.0168 176.05 89.5244 176.656 89.5244C177.311 89.5244 178.474 88.8858 178.474 87.3956V86.3476ZM183.19 81.6479H185.057V83.7439H185.106C185.401 83.1053 186.252 81.435 188.217 81.435C189.773 81.435 190.444 82.745 190.444 84.0223V90.4742H188.561V84.9393C188.561 83.8258 188.397 82.8269 187.464 82.8269C185.597 82.8269 185.073 85.7253 185.073 86.8225V90.4906H183.206V81.6479H183.19ZM198.337 89.0495H198.304C198.042 89.639 197.437 90.6871 195.996 90.6871C193.457 90.6871 192.671 88.6238 192.671 86.0692C192.671 83.5146 193.654 81.435 195.996 81.435C197.502 81.435 198.042 82.3847 198.304 82.876H198.337V77.685H200.22V90.4906H198.337V89.0495ZM196.503 89.508C198.042 89.508 198.272 87.543 198.272 86.0692C198.272 84.5299 198.124 82.5157 196.503 82.5157C195.046 82.5157 194.718 84.5299 194.718 86.0692C194.718 87.6085 194.997 89.508 196.503 89.508ZM210.095 78.9132H206.983V77.7014H215.237V78.9132H212.142V90.5069H210.095V78.9132ZM222.376 90.1958C221.607 90.5069 220.902 90.6871 219.789 90.6871C217.349 90.6871 215.384 89.246 215.384 85.6762C215.384 83.2363 216.366 81.435 219.15 81.435C221.934 81.435 222.556 83.3509 222.556 85.0539H217.267C217.267 86.7897 218.037 89.7045 220.69 89.7045C221.263 89.7045 221.819 89.5899 222.376 89.3279V90.1794V90.1958ZM220.706 84.2188C220.706 83.531 220.477 82.2374 219.085 82.2374C217.693 82.2374 217.349 83.7112 217.316 84.2188H220.706ZM230.891 90.2613C230.138 90.5397 229.336 90.7034 228.533 90.7034C225.733 90.7034 224.096 89.0168 224.096 85.7253C224.096 83.0889 225.307 81.4514 227.846 81.4514C230.236 81.4514 231.022 82.7123 231.022 84.5299H229.057C229.057 83.4819 228.959 82.2374 227.78 82.2374C226.699 82.2374 226.143 83.4983 226.143 85.0867C226.143 87.2482 227.06 89.7045 229.319 89.7045C229.86 89.7045 230.367 89.5735 230.891 89.377V90.2449V90.2613ZM232.791 77.7014H234.658V83.7603H234.691C234.985 83.1216 235.837 81.4677 237.786 81.4677C239.341 81.4677 240.013 82.7778 240.013 84.055V90.5069H238.129V84.9721C238.129 83.8585 237.966 82.8596 237.016 82.8596C235.149 82.8596 234.641 85.7581 234.641 86.8552V90.5233H232.775V77.7178L232.791 77.7014ZM242.895 81.6642H244.778V83.7603H244.811C245.105 83.1216 245.957 81.4514 247.922 81.4514C249.478 81.4514 250.149 82.7614 250.149 84.0387V90.4906H248.266V84.9557C248.266 83.8422 248.102 82.8433 247.152 82.8433C245.285 82.8433 244.778 85.7417 244.778 86.8389V90.5069H242.895V81.6642ZM252.392 86.0856C252.392 83.1053 253.686 81.4514 256.273 81.4514C258.861 81.4514 260.203 83.0889 260.203 86.0856C260.203 89.0823 258.877 90.7034 256.273 90.7034C253.67 90.7034 252.392 89.0823 252.392 86.0856ZM256.273 89.9338C257.944 89.9338 258.14 87.6904 258.14 86.0856C258.14 84.4808 257.944 82.2374 256.273 82.2374C254.603 82.2374 254.407 84.4644 254.407 86.0856C254.407 87.7067 254.603 89.9338 256.273 89.9338ZM262.545 77.7014H264.412V90.5069H262.545V77.7014ZM266.786 86.0856C266.786 83.1053 268.08 81.4514 270.684 81.4514C273.287 81.4514 274.597 83.0889 274.597 86.0856C274.597 89.0823 273.271 90.7034 270.684 90.7034C268.096 90.7034 266.786 89.0823 266.786 86.0856ZM270.684 89.9338C272.354 89.9338 272.567 87.6904 272.567 86.0856C272.567 84.4808 272.354 82.2374 270.684 82.2374C269.013 82.2374 268.817 84.4644 268.817 86.0856C268.817 87.7067 269.03 89.9338 270.684 89.9338ZM283.751 90.2449C283.751 92.734 282.949 94.6827 279.395 94.6827C278.249 94.6827 277.529 94.5025 276.857 94.3388V92.5047C277.447 92.865 278.495 93.5855 279.69 93.5855C281.655 93.5855 281.884 92.21 281.884 90.2613V89.2952H281.852C281.59 89.7209 281.082 90.5233 279.543 90.5233C277.217 90.5233 276.235 88.6074 276.235 86.0037C276.235 83.4 277.005 81.4841 279.543 81.4841C281 81.4841 281.606 82.5485 281.852 83.138H281.884V81.6806H283.751V90.2613V90.2449ZM280.05 89.4262C281.672 89.4262 281.819 87.5594 281.819 86.0856C281.819 84.6118 281.606 82.6468 280.05 82.6468C278.495 82.6468 278.265 84.5627 278.265 85.9873C278.265 87.4939 278.577 89.4262 280.05 89.4262ZM288.697 90.5888L285.307 81.6479H287.256L289.564 87.9688H289.614L291.677 81.6479H293.445L288.909 94.4698H287.403L288.697 90.5888ZM117.328 79.5846C116.853 79.3225 115.543 78.7167 114.151 78.7167C113.021 78.7167 112.219 79.3553 112.219 80.3214C112.219 83.0234 118.262 82.9415 118.262 86.9535C118.262 89.639 116.182 90.7034 113.611 90.7034C112.154 90.7034 110.745 90.3759 110.352 90.2286V88.2471C110.942 88.5746 112.416 89.3607 113.922 89.3607C115.265 89.3607 116.231 88.8203 116.231 87.5266C116.231 84.5954 110.188 84.7756 110.188 80.78C110.188 78.7003 111.728 77.5049 114.381 77.5049C115.576 77.5049 116.837 77.7505 117.345 77.8324V79.6009L117.328 79.5846Z" fill="black"/>
</g>
<defs>
<clipPath id="clip0_1_798">
<rect width="321.793" height="94.6497" fill="white" transform="translate(0.03125)"/>
</clipPath>
</defs>
</svg>
