<svg width="26" height="29" viewBox="0 0 26 29" fill="none" xmlns="http://www.w3.org/2000/svg">
<path d="M0.900391 26.1536V2.27129C0.900272 1.87176 1.00557 1.47928 1.20566 1.13347C1.40574 0.787659 1.69353 0.500764 2.03996 0.301752C2.38638 0.10274 2.77919 -0.00134317 3.17871 1.30868e-05C3.57823 0.00136934 3.97032 0.108116 4.31539 0.309476L24.785 12.2529C25.1275 12.4529 25.4116 12.7392 25.609 13.0832C25.8065 13.4272 25.9104 13.8169 25.9104 14.2136C25.9104 14.6102 25.8065 14.9999 25.609 15.3439C25.4116 15.6879 25.1275 15.9742 24.785 16.1742L4.31539 28.1154C3.97032 28.3167 3.57823 28.4235 3.17871 28.4249C2.77919 28.4262 2.38638 28.3221 2.03996 28.1231C1.69353 27.9241 1.40574 27.6372 1.20566 27.2914C1.00557 26.9456 0.900272 26.5531 0.900391 26.1536Z" fill="white"/>
</svg>
