<svg width="72" height="57" viewBox="0 0 72 57" fill="none" xmlns="http://www.w3.org/2000/svg">
<path d="M11.77 3.79255C13.5137 1.52573 15.2574 0.305144 17.0011 0.130776C18.9192 -0.21796 20.4885 0.130776 21.7091 1.17699C23.1041 2.04885 23.8887 3.44381 24.0631 5.36188C24.2375 7.27996 23.4528 9.3724 21.7091 11.6392C18.9192 15.301 16.9139 19.05 15.6933 22.8861C14.6471 26.5479 14.124 29.9481 14.124 33.0868L13.3393 27.8557C17.873 27.8557 21.5347 29.1634 24.3247 31.779C27.1146 34.2202 28.5096 37.6204 28.5096 41.9797C28.5096 46.1646 27.2018 49.652 24.5862 52.4419C21.9707 55.0574 18.5704 56.3652 14.3856 56.3652C9.85193 56.3652 6.27733 54.8831 3.66178 51.9188C1.22059 48.7801 0 44.3337 0 38.5794C0 34.9177 0.261555 31.1687 0.784666 27.3325C1.48215 23.322 2.70274 19.3115 4.44645 15.301C6.36452 11.2905 8.80571 7.45433 11.77 3.79255ZM55.1882 3.79255C56.9319 1.52573 58.6756 0.305144 60.4193 0.130776C62.3374 -0.21796 63.9067 0.130776 65.1273 1.17699C66.5223 2.04885 67.307 3.44381 67.4813 5.36188C67.6557 7.27996 66.871 9.3724 65.1273 11.6392C62.3374 15.301 60.3321 19.05 59.1116 22.8861C58.0653 26.5479 57.5422 29.9481 57.5422 33.0868L56.7576 27.8557C61.2912 27.8557 64.953 29.1634 67.7429 31.779C70.5328 34.2202 71.9278 37.6204 71.9278 41.9797C71.9278 46.1646 70.62 49.652 68.0044 52.4419C65.3889 55.0574 61.9887 56.3652 57.8038 56.3652C53.2702 56.3652 49.6956 54.8831 47.08 51.9188C44.6388 48.7801 43.4182 44.3337 43.4182 38.5794C43.4182 34.9177 43.6798 31.1687 44.2029 27.3325C44.9004 23.322 46.121 19.3115 47.8647 15.301C49.7827 11.2905 52.2239 7.45433 55.1882 3.79255Z" fill="#F2A943"/>
</svg>
