<svg width="155" height="35" viewBox="0 0 155 35" fill="none" xmlns="http://www.w3.org/2000/svg">
<path d="M137.326 19.6402C137.184 19.561 136.994 19.6006 136.883 19.7274L136.867 19.7432C136.693 20.1076 136.503 20.48 136.313 20.8444C136.107 21.2325 135.933 21.5415 135.846 21.6841C135.522 22.2466 135.332 22.5872 135.047 22.9833C134.77 23.3794 134.548 23.6884 134.168 24.0449C133.844 24.3459 133.297 24.8529 132.846 24.7183C132.846 24.7183 132.783 24.7024 132.72 24.6628C132.34 24.4331 131.92 23.3636 131.999 21.0979C132.039 19.9333 132.094 19.26 132.118 18.9351C132.126 18.8718 132.126 18.8242 132.126 18.7846C132.15 18.444 132.181 18.0162 132.15 17.5963C132.15 17.5409 132.126 17.3983 132.023 17.2636C131.904 17.1052 131.746 17.0497 131.722 17.0497C131.366 16.9388 130.812 17.7151 129.53 19.664C129.245 20.0997 128.952 20.5513 128.651 20.9949C128.485 21.2405 128.311 21.4861 128.145 21.7237C127.171 22.9358 126.894 23.0863 126.823 23.1022C126.768 22.9754 126.87 22.3971 127.045 21.7713L127.053 21.7554C127.266 21.0028 128.121 18.3964 130.06 16.3763C130.701 15.7109 131.263 15.3623 131.904 15.2355C131.999 15.2118 132.094 15.2118 132.197 15.2118C132.435 15.2355 132.625 15.4098 132.743 15.7267C132.838 16.0436 132.767 16.3446 132.688 16.5981C132.656 16.6932 132.688 16.8041 132.775 16.8675C132.87 16.9309 132.989 16.9229 133.076 16.8437L133.084 16.8358C133.369 16.4635 133.385 15.7505 133.115 15.3068C132.846 14.8949 132.253 14.6176 131.762 14.6731C131.042 14.7602 130.385 15.085 129.759 15.6871C128.121 17.3032 126.965 19.355 126.324 21.7871C126.221 22.1832 126.103 22.6744 126.221 23.1735C126.277 23.3794 126.396 23.5379 126.562 23.6329C126.72 23.728 126.918 23.7359 127.132 23.6409C127.448 23.522 127.67 23.3081 127.868 23.1022L128.137 22.809C128.469 22.4209 128.794 22.0168 129.11 21.6207C130.076 20.3849 130.773 19.2916 131.153 18.6975C131.255 18.539 131.342 18.4044 131.398 18.3172L131.477 18.2142C131.477 18.2459 131.469 18.3014 131.469 18.3885C131.327 20.2977 131.311 21.7713 131.422 22.7774C131.501 23.4983 131.651 24.845 132.546 25.2728C132.656 25.3283 132.783 25.3679 132.902 25.3837C132.973 25.3916 133.036 25.3996 133.108 25.3996C134.129 25.3996 135.055 24.2033 135.625 23.4666C136.448 22.405 136.954 21.2563 137.326 20.4087C137.397 20.2502 137.453 20.1235 137.485 20.0363L137.492 20.0125C137.516 19.862 137.453 19.7115 137.326 19.6402Z" fill="#3E828E"/>
<path d="M109.299 29.2023C109.275 29.1706 109.251 29.139 109.212 29.1152C109.188 28.727 109.164 28.3705 109.164 28.0219C109.164 27.8477 109.156 27.6734 109.148 27.4991V27.4912C109.141 27.3248 109.133 27.1505 109.133 26.9762V26.9683C109.077 24.2748 109.03 21.4862 109.03 18.7452C109.03 15.5447 109.03 12.2412 109.053 8.9852C109.053 7.70182 109.053 6.37091 109.03 5.06377C109.03 4.7865 108.998 4.50923 108.974 4.26364V4.24779C108.927 4.05766 108.768 3.93091 108.571 3.93091C108.468 3.93091 108.404 3.97844 108.373 4.01805C108.294 4.10519 108.309 4.2161 108.317 4.2874V4.29532C108.317 4.30324 108.325 4.31117 108.325 4.31909C108.325 4.52507 108.333 4.72312 108.341 4.92117H108.412L108.341 4.92909C108.349 5.11922 108.357 5.32519 108.357 5.51532C108.357 5.84805 108.349 6.18078 108.341 6.49766C108.333 6.82247 108.325 7.1552 108.325 7.48792L108.246 16.321C108.27 19.9573 108.317 23.8549 108.484 27.713L108.539 28.6874C108.539 28.9092 108.571 29.139 108.594 29.3529C108.634 29.5984 108.784 29.741 109.006 29.741C109.03 29.741 109.053 29.741 109.085 29.7331C109.172 29.7173 109.243 29.6856 109.299 29.6222C109.394 29.4955 109.37 29.3132 109.299 29.2023Z" fill="#3E828E"/>
<path d="M127.132 6.40248C127.132 6.38663 127.14 6.37078 127.148 6.35494C127.377 5.59442 127.52 4.81806 127.567 4.03378C127.615 3.19404 127.615 2.19585 127.298 1.19767C127.171 0.833253 126.997 0.421307 126.617 0.159879C126.261 -0.0777837 125.968 -0.0540214 125.66 0.25494C125.549 0.365849 125.462 0.476765 125.375 0.619363C125.288 0.76196 125.232 0.896632 125.185 1.03131C124.797 1.95027 124.607 2.94053 124.457 3.80403C124.377 4.25559 124.298 4.77845 124.243 5.27754C124.108 6.5213 123.816 9.09598 123.736 12.5975C123.728 12.7639 123.728 12.8907 123.728 12.9778C123.428 13.4452 123.103 13.9126 122.739 14.3879C120.792 16.9151 118.536 18.6183 116.589 19.7591C116.581 19.7591 116.565 19.7512 116.557 19.7432C115.734 19.4501 114.935 19.3234 113.138 19.1729H113.13C112.782 19.1491 112.062 19.0857 111.484 18.8164C111.334 18.7451 111.112 18.6183 110.977 18.3807C110.906 18.2539 110.859 18.1113 110.851 17.9449C110.851 17.842 110.851 17.739 110.874 17.6201C110.977 17.1369 111.207 16.6378 111.579 16.107C112.18 15.2435 113.051 14.5305 114.31 13.873C114.879 13.572 115.568 13.2709 116.344 13.2709C116.755 13.2709 117.048 13.4056 117.222 13.5244C117.294 13.5719 117.365 13.6195 117.404 13.6829L117.412 13.6908C117.634 13.9601 117.705 14.3245 117.634 14.784C117.523 15.4653 117.246 15.9803 116.874 16.5269C116.605 16.9309 116.288 17.3112 115.924 17.6597C115.837 17.7469 115.829 17.8895 115.908 17.9845C115.988 18.0875 116.138 18.1113 116.249 18.0321L116.257 18.0242C117.04 17.327 117.879 16.4397 118.18 15.1722C118.465 14.0156 118.085 13.2313 117.048 12.8352C116.565 12.6451 116.067 12.6055 115.576 12.7243C113.787 13.1521 112.291 14.0869 111.151 15.5049C110.756 15.9803 110.487 16.5348 110.328 17.2003C110.225 17.6043 110.249 17.9925 110.4 18.3252C110.479 18.4995 110.645 18.7768 111.112 19.0699C111.848 19.5373 112.608 19.6165 113.763 19.7353C114.08 19.767 114.436 19.8066 114.832 19.8542C114.911 19.8621 115.054 19.8779 115.244 19.9175C115.521 19.9651 115.806 20.0205 116.114 20.0997L116.106 20.1077C115.038 21.0187 114.04 22.0644 113.138 23.2131C113.075 23.2765 112.378 24.037 112.188 24.75C112.165 24.8451 112.085 25.1303 112.212 25.4075C112.228 25.4392 112.252 25.4947 112.291 25.5501C112.434 25.7323 112.687 25.772 112.885 25.772C112.988 25.772 113.075 25.764 113.122 25.7561C113.273 25.7403 114.642 25.5422 116.257 23.839C116.637 23.4349 116.827 23.1656 116.953 22.9675C117.262 22.4922 117.483 21.9456 117.594 21.391C117.689 20.9553 117.666 20.7335 117.594 20.5434C117.531 20.3612 117.428 20.1869 117.286 20.0443C118.346 19.3947 119.636 18.4757 120.919 17.2636C121.275 16.9309 122.161 16.0595 123.159 14.7999C123.404 14.4909 123.594 14.2295 123.736 14.0314V14.0948C123.768 18.2222 124.053 21.8743 124.615 25.257L124.647 25.4392C124.718 25.867 124.789 26.3027 124.884 26.7226C125.169 28.1723 125.525 29.8835 126.008 31.6105C126.032 31.6977 126.055 31.7769 126.079 31.864C126.19 32.2443 126.301 32.6325 126.435 32.9969C126.538 33.3138 126.649 33.6465 126.815 33.9475L126.823 33.9555C126.902 34.0822 127.013 34.1535 127.124 34.1694C127.14 34.1694 127.156 34.1773 127.171 34.1773C127.235 34.1773 127.314 34.1614 127.401 34.0822C127.567 33.9475 127.48 33.6069 127.448 33.5039C127.417 33.3851 127.314 33.0999 127.132 33.0761C127.045 33.0603 127.029 33.0286 127.005 32.8939L126.847 32.2997C126.792 32.0858 126.728 31.872 126.665 31.6739C126.562 31.3174 126.451 30.9451 126.364 30.5727C125.683 27.6653 125.201 24.9797 124.9 22.3734L124.821 21.6842C124.718 20.4958 124.639 19.2838 124.575 18.0875C124.488 16.3447 124.457 14.586 124.465 12.8431C125.304 11.1795 126.443 8.73949 127.132 6.40248ZM124.544 10.1892C124.575 9.55546 124.599 9.02468 124.647 8.46222V8.43053C124.765 6.69559 124.932 5.24585 125.177 3.85948C125.327 3.06728 125.509 2.22754 125.834 1.40364C125.937 1.18974 126.04 0.991693 126.19 0.809485C126.317 0.658965 126.388 0.627283 126.42 0.627283C126.451 0.627283 126.515 0.666895 126.602 0.817415C126.926 1.3878 127.021 2.04533 127.069 2.61572C127.116 3.40001 127.076 4.20806 126.934 5.07157L126.799 5.87169C126.554 6.90156 126.23 7.92351 125.826 8.90585C125.446 9.82481 125.003 10.72 124.496 11.5756C124.52 11.1161 124.528 10.6487 124.544 10.1892ZM117.119 20.8919C117.111 21.7158 116.486 22.6744 116.486 22.6823C116.478 22.6903 115.813 23.7201 114.729 24.441C114.333 24.7104 114.08 24.8292 113.573 25.0431L113.526 25.059C113.471 25.0827 113.399 25.1144 113.312 25.1461C113.091 25.2253 112.98 25.2332 112.893 25.2332C112.814 25.2332 112.758 25.2174 112.719 25.1857C112.719 25.1857 112.703 25.1699 112.695 25.1619C112.695 25.0986 112.711 24.8847 112.917 24.4727C113.217 23.8707 113.763 23.1497 114.547 22.3258C115.228 21.6049 115.988 20.9316 116.795 20.3136C116.874 20.3533 116.969 20.4245 117.032 20.5355C117.119 20.678 117.119 20.8286 117.119 20.8919Z" fill="#3E828E"/>
<path d="M147.774 16.8675C147.592 16.8199 147.481 17.0655 147.054 18.1271C146.895 18.5073 146.705 18.9906 146.484 19.4976C145.573 21.5732 145.122 22.0089 144.679 22.0327C144.624 22.0327 144.6 22.0406 144.56 22.0327C143.745 21.8742 143.175 18.9589 142.669 16.3763C142.645 16.2495 142.566 15.8614 142.249 15.6475C142.21 15.6237 142.099 15.5445 141.94 15.5286C141.561 15.4811 141.244 15.8217 141.133 15.9327C139.977 17.1606 138.949 20.9473 138.901 21.1058C138.577 22.3099 138.157 23.522 137.658 24.7182C137.627 23.823 137.603 22.9279 137.595 22.0564C137.587 21.1375 137.587 20.4482 137.603 19.3946C137.611 18.642 137.619 17.6993 137.619 16.3605C137.619 15.8218 137.619 15.394 137.619 15.1246L137.603 13.8888C137.603 13.7541 137.548 13.6353 137.445 13.556C137.366 13.4927 137.278 13.4689 137.191 13.4847C137.057 13.5085 136.946 13.6432 136.922 13.8095V14.784C136.922 15.3702 136.922 15.9802 136.891 16.5664C136.835 17.7785 136.812 18.9906 136.812 20.2819C136.812 22.0564 136.843 23.6646 136.914 25.1856C136.914 25.4708 136.97 25.7402 137.025 25.9779V25.9858C137.033 26.0175 137.049 26.1046 137.112 26.1838C137.184 26.2868 137.318 26.3819 137.461 26.3819C137.484 26.3819 137.5 26.3819 137.524 26.374C137.635 26.3502 137.73 26.263 137.793 26.1046C137.951 25.756 139.059 22.6981 139.859 20.4641C140.215 19.4659 140.5 18.6816 140.611 18.3806C140.801 17.8577 141.394 16.2575 141.758 16.3129C141.893 16.3288 142.02 16.7011 142.162 17.2557C142.312 17.826 142.439 18.4202 142.566 18.9827C142.843 20.2581 143.08 21.3514 143.508 21.9534C143.603 22.0881 143.856 22.4367 144.283 22.5318C144.513 22.5793 144.711 22.5397 144.782 22.5238C145.075 22.4605 145.336 22.302 145.589 22.0327C146.088 21.5019 146.428 20.7176 146.856 19.664C147.093 19.0777 147.323 18.4994 147.584 17.826C147.695 17.5329 147.79 17.2953 147.853 17.1289L147.861 17.1051V17.0814C147.9 17.0338 147.885 16.8992 147.774 16.8675Z" fill="#3E828E"/>
<path d="M155 27.4118C154.699 26.1047 154.454 24.75 154.256 23.2607C154.05 21.6604 153.829 20.0126 153.749 18.3886C153.694 17.5409 153.694 16.6616 153.694 15.806C153.694 13.3977 153.916 11.4568 154.256 8.51767L154.303 8.10573C154.375 7.5195 154.446 6.93326 154.517 6.34702V6.33118C154.509 6.14898 154.383 5.99053 154.208 5.95884C154.042 5.92715 153.876 6.00637 153.797 6.14897L153.789 6.16482V6.18066C153.662 6.95703 153.504 7.72547 153.314 8.48598C152.863 10.3318 152.222 12.1539 151.43 13.8968C150.789 14.1186 150.188 14.4196 149.649 14.784C147.307 16.3685 146.784 18.65 146.784 19.3947C146.784 19.5294 146.784 19.9017 147.03 20.0997C147.227 20.2582 147.512 20.274 147.829 20.1552C147.963 20.0998 148.098 20.0205 148.225 19.9334C148.581 19.664 148.866 19.3709 149.095 19.1174L149.499 18.6342C149.76 18.2856 149.99 17.945 150.196 17.6122L150.488 17.1369C150.686 16.8359 150.876 16.519 151.082 16.1466C151.454 15.4891 151.771 14.8712 152.048 14.2691C152.087 14.1899 152.135 14.1344 152.198 14.1265C152.253 14.1186 152.317 14.1424 152.372 14.2057L152.443 14.3483C152.467 14.4117 152.499 14.4592 152.554 14.483C152.602 14.5068 152.665 14.5068 152.728 14.4909L152.744 14.483C152.918 14.3959 152.855 14.2374 152.831 14.174C152.823 14.1661 152.823 14.1503 152.823 14.1424L152.815 14.1265C152.72 13.9285 152.554 13.8096 152.34 13.7779C152.238 13.7542 152.222 13.7304 152.222 13.7225C152.214 13.7066 152.214 13.6749 152.253 13.6036C152.333 13.4531 152.641 12.5975 153.219 10.9339C153.172 11.2983 153.132 11.6627 153.092 12.0192C153.029 12.6688 152.942 13.4769 152.902 14.5622C152.879 15.2752 152.879 15.806 152.887 16.1546C152.895 17.0894 152.934 18.0479 153.013 18.9986C153.14 21.7159 153.559 24.4014 154.272 26.9682C154.319 27.1504 154.375 27.3405 154.43 27.5307L154.438 27.5465C154.493 27.6574 154.604 27.7208 154.715 27.7208C154.747 27.7208 154.778 27.7129 154.81 27.7049C154.921 27.6653 155 27.5465 155 27.4118V27.4039V27.4118ZM149.119 17.9608C148.826 18.4044 147.963 19.5611 147.504 19.6086C147.433 19.6165 147.386 19.5848 147.386 19.5848C147.386 19.5848 147.346 19.5531 147.322 19.4898C147.212 19.157 147.362 18.6104 147.758 17.9212C148.066 17.3825 148.407 16.9547 148.415 16.9468C149.143 16.0357 150.045 15.2277 151.098 14.5543C150.963 14.8553 150.813 15.1485 150.663 15.4416C150.251 16.2496 149.847 16.8596 149.119 17.9608Z" fill="#3E828E"/>
<path d="M13.4636 19.8302C13.3845 19.7748 13.2895 19.8064 13.2183 19.854C13.1154 19.9332 13.1075 20.0679 13.1075 20.1392C13.1075 20.1471 13.1075 20.155 13.1075 20.1629C13.0758 20.6145 12.8859 21.0027 12.5376 21.3354L12.5297 21.3433C12.4664 21.4146 12.403 21.4622 12.3239 21.5176C12.2843 21.5493 12.2447 21.5731 12.2131 21.6048C11.8648 21.8503 11.4691 22.0642 11.0733 22.2227C9.21329 22.9119 7.25827 23.1337 5.08955 22.8961C4.32971 22.8089 3.72025 22.5792 3.2216 22.1989C2.50134 21.6523 1.95521 20.8442 1.6861 19.9332C1.35367 18.8162 1.43281 17.6199 1.8998 16.6535C2.75462 14.8948 4.20307 13.7381 6.21348 13.2232C7.36116 12.938 8.29514 13.1915 8.97584 13.9916C9.30827 14.3957 9.53779 14.8551 9.65652 15.4018L9.74359 15.9246L9.75941 16.4712C9.75941 17.4774 9.48238 18.4914 8.92042 19.5688C8.84127 19.7351 8.74629 19.8698 8.65131 20.0124C8.45344 20.3135 8.20808 20.5749 7.94688 20.7571C7.78067 20.868 7.63027 20.9393 7.49571 20.9551C7.21077 21.0027 6.98125 20.8997 6.73588 20.6224C6.36388 20.1946 6.18975 19.7193 6.22141 19.2202C6.22932 19.141 6.23723 19.038 6.17391 18.9588C6.12642 18.9033 6.05519 18.8796 5.96813 18.8716C5.85732 18.8637 5.73858 18.8716 5.65943 18.9588C5.5882 19.038 5.5882 19.141 5.5882 19.1806C5.59612 19.4341 5.23995 20.052 5.09748 20.1392C5.08956 20.1075 5.06582 20.0441 5.0579 19.9174C5.02624 19.5609 5.09747 18.7766 5.84148 17.5249C6.15808 17.002 6.47469 16.6851 6.87836 16.5109C7.04457 16.4316 7.18703 16.4316 7.29784 16.4871C7.41656 16.5505 7.50364 16.701 7.52738 16.899C7.54321 17.0337 7.55113 17.1288 7.54321 17.2635L7.50363 17.6675V17.6754C7.50363 17.6833 7.49571 17.6992 7.49571 17.7229C7.47988 17.7784 7.44822 17.9527 7.65401 18.0081C7.71733 18.024 7.77275 18.024 7.82024 18.0002C7.89939 17.9527 7.92314 17.8655 7.94688 17.7942L7.95479 17.7784C8.04977 17.509 8.07352 17.2318 8.04186 16.9545C7.98645 16.4158 7.67777 16.1306 7.13163 16.1148H7.12371C6.71213 16.1148 6.35596 16.2573 5.99978 16.5742C5.24785 17.2476 4.76503 18.1666 4.48801 19.4658C4.40886 19.7827 4.40886 20.0441 4.48801 20.2818C4.55133 20.4877 4.66214 20.6145 4.81253 20.67C4.96291 20.7254 5.13705 20.7016 5.33493 20.5907C5.46157 20.5274 5.54862 20.4244 5.63568 20.3214C5.65151 20.2976 5.67527 20.2738 5.6911 20.2501L5.80983 20.456C6.22932 21.2086 6.90209 21.581 7.59861 21.4463C7.91521 21.3988 8.26347 21.2166 8.60381 20.9076C8.92042 20.6224 9.20536 20.2422 9.44281 19.7668C10.3451 18.0319 10.5588 16.5425 10.0998 15.069C9.67235 13.6668 8.41386 12.6924 6.96541 12.6528C6.39553 12.6449 5.82564 12.7399 5.27951 12.9142C4.70963 13.0964 4.21891 13.3262 3.76775 13.6114C2.24807 14.5779 1.32993 15.782 0.957919 17.3031C0.720469 18.2379 0.752125 19.2202 1.0529 20.1392C1.63069 21.9137 3.11872 23.0941 5.03415 23.2842C5.5328 23.3318 6.02352 23.3476 6.50633 23.3476C7.51946 23.3476 8.50093 23.2525 9.44281 23.0466C9.81482 22.9832 10.1868 22.8881 10.5193 22.7851C11.3029 22.5633 11.9281 22.2702 12.5059 21.8741C12.965 21.5414 13.2658 21.1453 13.4241 20.662C13.4557 20.567 13.4716 20.4877 13.4795 20.4244V20.4006C13.4953 20.3055 13.5032 20.2422 13.5111 20.1312C13.5349 19.9728 13.5428 19.8857 13.4636 19.8302Z" fill="#3E828E"/>
<path d="M51.3454 17.5408C51.2425 17.4695 51.1079 17.4616 51.005 17.5329L50.9892 17.5408L50.9813 17.5566C50.4747 18.2062 49.9365 18.8559 49.3903 19.4817C47.8469 21.2404 46.9129 22.0326 46.5409 21.8821C46.4301 21.8425 46.3431 21.7553 46.2006 21.4226C45.8128 20.5274 45.6307 19.5372 45.4566 18.5786L45.4091 18.2934C45.3616 18.1033 45.322 17.8973 45.2825 17.6834C45.1558 17.01 45.0213 16.3129 44.6176 15.7742C44.4989 15.6157 44.3485 15.5207 44.1902 15.5048C43.9448 15.4811 43.5491 15.6553 42.8842 17.4853C42.3381 19.0064 41.6732 21.4543 40.9213 24.7736C40.4622 14.7285 40.1219 6.79846 40.1298 6.18846C40.1377 5.76859 40.1535 5.35664 40.1535 5.35664C40.1694 5.06352 40.1852 4.81002 40.2089 4.56443V4.54859L40.201 4.53274C40.1694 4.41391 40.0585 4.33469 39.9319 4.32677C39.8053 4.31885 39.6945 4.39015 39.647 4.50898L39.6391 4.52482C39.5678 4.93677 39.5678 5.67352 39.5757 6.25976C39.5757 6.40236 39.5757 6.53703 39.5757 6.64794L39.5837 7.17872C39.647 10.9338 39.7815 19.7352 40.4781 26.1996V26.2076C40.5176 26.3898 40.6759 26.5086 40.8817 26.5086C40.8975 26.5086 40.9055 26.5086 40.9213 26.5086C41.1271 26.4927 41.2775 26.3581 41.2933 26.1838C41.5228 25.5817 41.6574 24.9162 41.784 24.2825C41.8078 24.1637 41.8315 24.0527 41.8553 23.9418C41.8632 23.9022 42.6942 20.3848 43.9052 16.8595C44.111 16.2574 44.2219 16.1703 44.2535 16.1544C44.3485 16.2099 44.4276 16.7169 44.4514 16.8912L44.4593 16.9229C44.6255 17.9686 44.863 18.8955 45.0371 19.5688C45.1083 19.8461 45.1716 20.0838 45.2112 20.266C45.5041 21.6286 46.1056 22.5079 46.8259 22.6268C47.3404 22.706 47.8153 22.3891 48.4168 21.8425C49.5882 20.7809 50.6093 19.4659 51.4641 17.9211L51.472 17.9052C51.5037 17.7626 51.4562 17.62 51.3454 17.5408Z" fill="#3E828E"/>
<path d="M80.9789 17.7546C81.0185 17.6199 80.971 17.4852 80.8602 17.406C80.7573 17.3347 80.6228 17.3268 80.512 17.3981L80.4961 17.406L80.4882 17.4219C79.9817 18.0715 79.4434 18.7211 78.8973 19.3469C77.3539 21.1056 76.4199 21.8978 76.0479 21.7473C75.9371 21.7077 75.85 21.6206 75.7075 21.2878C75.3197 20.3926 75.1377 19.4024 74.9635 18.4438L74.9081 18.1586C74.8606 17.9685 74.8211 17.7625 74.7815 17.5486C74.6548 16.8752 74.5203 16.1781 74.1166 15.6394C73.9979 15.481 73.8475 15.3859 73.6892 15.3701C73.4438 15.3463 73.0481 15.5206 72.3832 17.3506C71.8371 18.8716 71.1722 21.3195 70.4203 24.6389C69.9612 14.5937 69.6209 6.66369 69.6288 6.05369C69.6367 5.63382 69.6526 5.22187 69.6526 5.22187C69.6684 4.95252 69.6842 4.72278 69.708 4.42967V4.41382L69.7 4.39798C69.6684 4.27915 69.5576 4.19993 69.4309 4.192C69.3043 4.18408 69.1935 4.25538 69.146 4.37421L69.1381 4.39006C69.0668 4.802 69.0668 5.53083 69.0748 6.11706C69.0748 6.25966 69.0748 6.39434 69.0748 6.50525L69.0827 7.04395C69.146 10.799 69.2806 19.6004 69.9771 26.0649V26.0728C70.0166 26.255 70.1749 26.3738 70.3807 26.3738C70.3966 26.3738 70.4045 26.3738 70.4203 26.3738C70.6261 26.358 70.7765 26.2233 70.7923 26.049C71.0219 25.4469 71.1564 24.7815 71.2831 24.1477C71.3068 24.0368 71.3305 23.918 71.3543 23.8071C71.3622 23.7754 72.1933 20.25 73.4043 16.7247C73.6101 16.1226 73.713 16.0355 73.7525 16.0197C73.8475 16.0751 73.9187 16.5821 73.9504 16.7485L73.9583 16.7802C74.1245 17.8259 74.362 18.7528 74.5361 19.4262C74.6073 19.7034 74.6707 19.9411 74.7103 20.1233C75.0031 21.4859 75.6046 22.3652 76.3249 22.4841C76.8394 22.5633 77.3143 22.2464 77.9158 21.6998C79.0873 20.6382 80.1083 19.3232 80.9631 17.7784L80.9789 17.7546Z" fill="#3E828E"/>
<path d="M100.584 17.406C100.481 17.3347 100.346 17.3268 100.235 17.3981L100.22 17.406L100.212 17.4219C99.7052 18.0715 99.167 18.7211 98.6208 19.3469C97.0774 21.1056 96.1434 21.8978 95.7714 21.7473C95.6606 21.7077 95.5735 21.6206 95.4311 21.2878C95.0353 20.3926 94.8612 19.4024 94.6871 18.4438L94.6396 18.1586C94.5921 17.9685 94.5525 17.7625 94.5129 17.5486C94.3863 16.8752 94.2517 16.1781 93.8481 15.6394C93.7293 15.481 93.579 15.3859 93.4207 15.3701C93.1753 15.3463 92.7795 15.5206 92.1147 17.3506C91.5685 18.8716 90.9037 21.3195 90.1517 24.6389C89.6927 14.5937 89.3523 6.66369 89.3602 6.05369C89.3682 5.63382 89.384 5.22187 89.384 5.22187C89.3998 4.95252 89.4157 4.72278 89.4394 4.42967V4.41382L89.4315 4.39798C89.3998 4.27915 89.289 4.19993 89.1624 4.192C89.0357 4.18408 88.9249 4.25538 88.8774 4.37421L88.8695 4.39006C88.7983 4.802 88.7983 5.53083 88.8062 6.11706C88.8062 6.25966 88.8062 6.39434 88.8062 6.50525L88.8141 7.04395C88.8774 10.799 89.012 19.6004 89.7085 26.0649V26.0728C89.7481 26.255 89.9064 26.3738 90.1122 26.3738C90.128 26.3738 90.1359 26.3738 90.1517 26.3738C90.3575 26.358 90.5079 26.2233 90.5238 26.049C90.7533 25.4469 90.8879 24.7815 91.0145 24.1477C91.0382 24.0368 91.062 23.918 91.0857 23.8071C91.0936 23.7754 91.9247 20.25 93.1357 16.7247C93.3415 16.1226 93.4444 16.0355 93.484 16.0197C93.579 16.0751 93.6581 16.5821 93.6819 16.7485L93.6898 16.7802C93.8481 17.8259 94.0934 18.7528 94.2676 19.4262C94.3388 19.7034 94.4021 19.9411 94.4417 20.1233C94.7345 21.4859 95.3361 22.3652 96.0564 22.4841C96.5708 22.5633 97.0457 22.2464 97.6473 21.6998C98.8187 20.6382 99.8397 19.3232 100.695 17.7784L100.702 17.7625C100.734 17.6199 100.687 17.4852 100.584 17.406Z" fill="#3E828E"/>
<path d="M58.7776 17.1208C58.7301 17.0812 58.6588 17.0575 58.5955 17.0654C58.5243 17.0733 58.461 17.1129 58.4135 17.1684C58.0969 17.6516 57.7724 18.1349 57.4399 18.6023C57.0442 19.1647 56.7513 19.5212 56.4505 19.8064C56.0785 20.1629 55.7224 20.4956 55.4612 20.4164C55.2237 20.3451 55.1208 19.9411 55.0417 19.6084C54.8913 18.9746 54.8755 18.119 54.8596 17.4853C54.8517 17.1763 54.8517 16.9307 54.828 16.796C54.8201 16.7643 54.8121 16.6614 54.733 16.5584C54.6459 16.4395 54.5035 16.3603 54.3372 16.3366C54.2818 16.3286 54.2344 16.3366 54.1869 16.3524C54.0206 16.4158 53.9494 16.6376 53.9336 16.701C51.8124 21.8266 51.2266 22.5633 51.0683 22.6267C50.9971 22.5237 50.9654 22.0484 51.1792 20.4085C51.2346 19.9649 51.2979 19.6638 51.377 19.2756C51.4245 19.0301 51.4878 18.7449 51.5512 18.3646C51.6778 17.6833 51.7807 16.9862 51.8598 16.3128C51.8757 16.2177 51.844 16.1227 51.7886 16.0514C51.7332 15.9801 51.6541 15.9405 51.5749 15.9246C51.4324 15.9088 51.2979 15.988 51.2346 16.1306L51.2266 16.1464C51.0683 16.8277 50.918 17.5169 50.7834 18.1982C50.6805 18.7211 50.6568 18.8716 50.633 19.0855C50.6013 19.2994 50.5697 19.5608 50.4351 20.3055C50.4272 20.3372 50.3164 21.0106 50.3164 22.2306C50.3164 22.4128 50.3481 22.7614 50.5776 23.0624C50.7122 23.2446 50.8942 23.3397 51.0842 23.3476H51.1C51.282 23.3476 51.4641 23.2605 51.5987 23.0941C51.8282 22.8168 52.0498 22.4682 52.2793 22.0088C52.3901 21.779 52.4851 21.6047 52.5643 21.4542C52.8255 20.9551 53.0154 20.5907 53.7753 18.8003L53.7832 18.7845C53.8228 18.6815 53.9415 18.4121 54.0998 18.0477C54.1314 17.9685 54.1631 17.8972 54.1948 17.8338C54.2027 17.9527 54.2027 18.0715 54.2027 18.1903C54.2027 18.3567 54.2106 18.531 54.2185 18.7053C54.2581 19.3549 54.3768 19.846 54.5826 20.2025C54.6538 20.3214 54.7172 20.4085 54.7251 20.4164C54.7726 20.4798 55.0259 20.7888 55.295 20.8838C55.5482 20.9789 55.849 20.8917 56.2764 20.5986C56.9175 20.1629 57.3054 19.648 57.7169 19.0617C58.081 18.5468 58.4372 18.016 58.7776 17.4773C58.8251 17.4298 58.8488 17.3585 58.8488 17.2951C58.8646 17.2238 58.833 17.1604 58.7776 17.1208Z" fill="#3E828E"/>
<path d="M69.2483 16.1625L69.2324 16.1704C69.1612 16.2258 69.0821 16.2813 69.0108 16.3367C67.5624 17.43 66.0743 18.4995 64.5863 19.5293C64.5784 19.5293 64.5626 19.5214 64.5547 19.5135C63.7315 19.2204 62.9321 19.0936 61.1354 18.951H61.1275C60.7792 18.9273 60.0668 18.8639 59.4811 18.5945C59.3308 18.5232 59.1091 18.3965 58.9746 18.1588C58.9033 18.0321 58.8638 17.8895 58.8479 17.7231C58.8479 17.6201 58.8479 17.5171 58.8717 17.3983C58.9746 16.9151 59.2041 16.4239 59.5761 15.8931C60.1777 15.0296 61.0483 14.3166 62.3147 13.6591C62.8846 13.358 63.5732 13.057 64.341 13.057C64.7525 13.057 65.0454 13.1917 65.2195 13.3105C65.2908 13.358 65.362 13.4056 65.4016 13.469L65.4095 13.4769C65.6311 13.7462 65.7023 14.1106 65.6311 14.5701C65.5203 15.2514 65.2433 15.7664 64.8713 16.313C64.6022 16.717 64.2776 17.0973 63.9215 17.4458C63.8344 17.533 63.8265 17.6756 63.9056 17.7706C63.9848 17.8736 64.1352 17.8974 64.246 17.8182L64.2539 17.8103C65.0375 17.1131 65.8765 16.2179 66.1772 14.9583C66.4622 13.8017 66.0823 13.0174 65.0454 12.6213C64.5626 12.4312 64.0639 12.3915 63.5732 12.5104C61.7844 12.9382 60.2885 13.873 59.1487 15.291C58.753 15.7664 58.4839 16.3209 58.3256 16.9864C58.2227 17.3904 58.2543 17.7786 58.4047 18.1113C58.4839 18.2856 58.6501 18.5628 59.1171 18.856C59.8532 19.3234 60.613 19.4026 61.7686 19.5214C62.0852 19.5531 62.4414 19.5927 62.8371 19.6403C62.9163 19.6482 63.0587 19.664 63.2487 19.7036C63.5257 19.7512 63.8107 19.8066 64.1193 19.8858L64.1114 19.8938C63.0429 20.8048 62.0456 21.8505 61.1433 22.9992C61.08 23.0626 60.3755 23.8231 60.1856 24.5361C60.1618 24.6312 60.0827 24.9164 60.2093 25.1936C60.2251 25.2253 60.2489 25.2808 60.2885 25.3362C60.4309 25.5184 60.6842 25.558 60.89 25.558C60.9929 25.558 61.08 25.5501 61.1275 25.5422C61.2778 25.5264 62.6472 25.3283 64.2618 23.6251C64.6417 23.221 64.8317 22.9438 64.9583 22.7536C65.267 22.2783 65.4886 21.7317 65.5994 21.1771C65.6944 20.7414 65.6628 20.5196 65.5994 20.3295C65.5361 20.1473 65.4332 19.9809 65.2908 19.8304L67.8869 17.7469L68.3618 17.43C68.5517 17.3032 68.7417 17.1765 68.9238 17.0497C69.1375 16.8992 69.3512 16.7487 69.5649 16.5982L69.5807 16.5903L69.5886 16.5744C69.6598 16.4793 69.6599 16.3526 69.5965 16.2575C69.5095 16.1387 69.367 16.107 69.2483 16.1625ZM65.1166 20.686C65.1087 21.5099 64.4913 22.4684 64.4834 22.4763C64.4755 22.4843 63.8107 23.5141 62.7263 24.2351C62.3305 24.4965 62.0773 24.6232 61.5707 24.8371L61.5232 24.853C61.4678 24.8767 61.3966 24.9084 61.3095 24.9401C61.0879 25.0193 60.9771 25.0273 60.89 25.0273C60.8109 25.0273 60.7555 25.0114 60.7159 24.9797C60.708 24.9718 60.7001 24.9639 60.6921 24.956C60.6921 24.8926 60.708 24.6787 60.9138 24.2667C61.2145 23.6647 61.7607 22.9438 62.5442 22.1199C63.2249 21.3989 63.9848 20.7256 64.7921 20.1077C64.8713 20.1473 64.9663 20.2186 65.0296 20.3295C65.1166 20.48 65.1166 20.6226 65.1166 20.686Z" fill="#3E828E"/>
<path d="M89.5668 19.4658C89.4243 19.3866 89.2343 19.4262 89.1235 19.5609L89.1156 19.5767C88.9415 19.9411 88.7515 20.3134 88.5616 20.6779C88.4112 20.9631 88.245 21.2562 88.0946 21.5176C87.7701 22.0801 87.5801 22.4207 87.2952 22.8168C87.0181 23.2129 86.7965 23.5219 86.4166 23.8784C86.0921 24.1794 85.5459 24.6864 85.0948 24.5518C85.0948 24.5518 85.0315 24.5359 84.9681 24.4963C84.5882 24.2666 84.1687 23.1971 84.2479 20.9314C84.2875 19.7668 84.3429 19.0934 84.3666 18.7686C84.3745 18.7053 84.3745 18.6577 84.3824 18.6181C84.4062 18.2775 84.4378 17.8497 84.4062 17.4298C84.4062 17.3744 84.3824 17.2318 84.2795 17.0971C84.1608 16.9386 84.0025 16.8832 83.9788 16.8832C83.6147 16.7644 83.0606 17.5486 81.7863 19.4975C81.5014 19.9332 81.2085 20.3847 80.9077 20.8284C80.7415 21.0819 80.5674 21.3275 80.4012 21.5572C79.4276 22.7693 79.1506 22.9198 79.0794 22.9357C79.024 22.8089 79.1269 22.2306 79.301 21.6047L79.3089 21.5889C79.5226 20.8363 80.3774 18.2299 82.3166 16.2098C82.9498 15.5444 83.5197 15.1958 84.1608 15.069C84.2558 15.0453 84.3508 15.0453 84.4537 15.0453C84.6911 15.069 84.8811 15.2433 84.9998 15.5602C85.0948 15.8771 85.0235 16.1781 84.9444 16.4316C84.9127 16.5267 84.9444 16.6376 85.0315 16.701C85.1264 16.7644 85.2452 16.7564 85.3322 16.6772L85.3401 16.6693C85.6251 16.297 85.6409 15.584 85.3718 15.1403C85.1027 14.7284 84.5091 14.4511 84.0183 14.5066C83.2981 14.5937 82.6411 14.9185 82.0158 15.5206C80.3774 17.1367 79.2218 19.1885 78.5807 21.6206C78.4857 22.0167 78.3591 22.5079 78.4778 23.007C78.5332 23.2129 78.652 23.3714 78.8182 23.4664C78.9844 23.5615 79.1744 23.5694 79.3881 23.4744C79.7047 23.3635 79.9263 23.1416 80.1242 22.9357L80.3933 22.6425C80.7257 22.2544 81.0502 21.8583 81.3668 21.4542C82.3324 20.2184 83.029 19.1251 83.4089 18.531C83.5118 18.3725 83.5909 18.2379 83.6463 18.1507L83.7255 18.0477C83.7255 18.0794 83.7176 18.1349 83.7176 18.222C83.5751 20.1312 83.5593 21.6047 83.6701 22.6109C83.7492 23.3318 83.8996 24.6785 84.794 25.1063C84.9048 25.1618 85.0315 25.2014 85.1502 25.2172C85.2214 25.2251 85.2848 25.2331 85.356 25.2331C86.377 25.2331 87.3031 24.0368 87.873 23.3001C88.6961 22.2385 89.2027 21.0819 89.5747 20.2421C89.6459 20.0837 89.7013 19.957 89.733 19.8698L89.7409 19.846C89.7567 19.6797 89.6934 19.5371 89.5668 19.4658Z" fill="#3E828E"/>
<path d="M39.7894 16.297L39.7657 16.305C38.9425 16.6456 38.1194 17.0021 37.3041 17.3665C36.4493 17.7547 35.5866 18.1587 34.7397 18.5786C34.5497 18.4756 34.3518 18.3806 34.1539 18.2855C31.914 17.2319 28.004 16.9546 22.8434 17.4933C22.3685 17.5408 21.1891 17.5725 18.8542 17.628C18.4585 17.6359 17.2475 17.6676 15.9969 17.1051C15.0154 16.6694 14.5959 15.9643 14.6751 14.8869C14.7226 14.0393 15.0392 13.1995 15.6407 12.2409C16.7963 10.4585 18.2685 8.92952 20.1206 7.57484C22.4714 5.83991 24.9725 4.56446 27.5528 3.80394C29.4603 3.23355 31.1067 3.05926 32.7292 3.27316C34.051 3.45537 35.1196 3.87523 36.014 4.55653C37.1696 5.42796 37.4466 6.66381 36.7817 7.94719C36.4414 8.58095 35.9665 9.18303 35.3333 9.78511C34.1856 10.8863 32.9508 11.7419 31.6607 12.3281C30.4418 12.8826 29.2941 13.1361 29.1991 13.1441C29.1596 13.1441 29.12 13.152 29.0883 13.1678C29.0408 13.1916 29.0092 13.2391 28.9933 13.2946C28.9854 13.3184 28.9617 13.3897 28.9933 13.4689C29.0408 13.5956 29.1912 13.6273 29.2704 13.6352C29.3258 13.6432 29.3812 13.6511 29.4445 13.6432C29.9431 13.5877 30.426 13.4689 30.9088 13.2867C32.6976 12.6212 34.2885 11.6547 35.634 10.411C36.3622 9.73757 37.0983 8.96121 37.502 7.89173C37.8582 6.94108 37.7553 6.02212 37.2012 5.15861C36.5997 4.2238 35.7053 3.55043 34.4626 3.09095C32.8163 2.49679 31.0354 2.39381 29.0013 2.76615C26.8405 3.17017 24.7034 3.96237 22.4714 5.20614C19.6932 6.75887 17.4928 8.60471 15.7515 10.8625C14.8255 12.0667 14.2952 13.1441 14.0815 14.269C13.8361 15.6633 14.3743 16.8278 15.5932 17.5487C16.1314 17.8735 16.7646 18.0716 17.6274 18.1746C18.9729 18.3647 20.2947 18.3093 21.6482 18.23C21.9411 18.2142 22.1627 18.2063 22.2498 18.2063C22.2656 18.2063 22.2814 18.2063 22.2893 18.2063C23.4608 18.1508 24.458 18.0954 25.3366 18.0478C28.558 17.8656 30.0223 17.7864 31.8507 18.2063C32.6184 18.3885 33.3862 18.642 34.146 18.9668C32.1752 19.9967 30.1806 21.0661 28.2177 22.1515C28.0119 22.2703 23.0887 25.0351 22.0044 27.6336C21.8223 28.0772 21.9252 28.4178 21.9332 28.4337C22.0123 28.6872 22.2023 28.909 22.4793 29.0674C22.8038 29.2417 23.1362 29.3447 23.4766 29.3764H23.8328C24.6322 29.3764 25.4791 29.2496 26.4922 28.9724C27.7665 28.6476 29.025 28.1089 30.4339 27.285C31.3045 26.7859 32.1673 26.1442 33.0617 25.3282C33.9165 24.5519 34.8505 23.5695 35.3254 22.1119C35.547 21.4385 35.6261 20.8047 35.5549 20.2264C35.5074 19.8461 35.3966 19.4659 35.2304 19.1094C35.8952 18.7687 36.568 18.436 37.2408 18.1191C38.151 17.6913 39.085 17.2794 40.011 16.9071L40.0348 16.8912C40.1535 16.8041 40.201 16.6456 40.1456 16.511C40.0823 16.3604 39.9398 16.2733 39.7894 16.297ZM34.8821 20.4561C34.5893 22.3416 33.212 23.9656 33.2041 23.9815C31.4312 26.0491 29.2941 26.9839 28.1464 27.483L27.9881 27.5543C26.6743 28.1326 25.4158 28.4812 24.1573 28.6159H23.6824C23.4291 28.6159 23.1758 28.5684 22.9067 28.5129L22.8355 28.4891H22.8276C22.6218 28.4337 22.4951 28.3624 22.4397 28.2673C22.3289 28.0772 22.4476 27.8078 22.503 27.6969C23.5241 25.3995 28.9617 22.5317 29.0171 22.5C30.893 21.5177 32.8242 20.4561 34.7476 19.355C34.7713 19.4025 34.7951 19.45 34.8188 19.5055C34.8346 19.553 34.8425 19.5847 34.8505 19.6243C34.8663 19.7907 34.9217 20.1868 34.8821 20.4561Z" fill="#3E828E"/>
</svg>
