<svg width="39" height="39" viewBox="0 0 39 39" fill="none" xmlns="http://www.w3.org/2000/svg">
<path d="M19.2424 38.5002C8.86239 38.5002 0.452392 30.0902 0.442392 19.7102C0.432392 9.33016 8.85239 0.910156 19.2324 0.910156C29.6124 0.910156 38.0224 9.32016 38.0324 19.7002C38.0324 30.0802 29.6224 38.4902 19.2424 38.5002Z" stroke="white" stroke-width="0.43" stroke-miterlimit="10"/>
<path d="M10.4521 25.7004C15.2721 28.7904 21.6722 27.3904 24.7622 22.5704C25.9222 20.7604 26.4922 18.6404 26.3922 16.5004C27.1021 15.9904 27.7222 15.3504 28.2122 14.6104C27.5522 14.9004 26.8422 15.1004 26.1222 15.1804C26.8822 14.7204 27.4522 14.0104 27.7222 13.1604C27.0122 13.5804 26.2221 13.8804 25.4121 14.0504C24.0321 12.5804 21.7222 12.5104 20.2622 13.8904C19.3122 14.7804 18.9121 16.1104 19.2021 17.3704C16.2721 17.2204 13.5422 15.8404 11.6922 13.5604C10.7222 15.2204 11.2222 17.3504 12.8222 18.4204C12.2422 18.4004 11.6821 18.2504 11.1721 17.9604C11.1521 19.7104 12.3821 21.2304 14.0921 21.5804C13.5521 21.7304 12.9921 21.7504 12.4521 21.6404C12.9321 23.1204 14.2922 24.1404 15.8521 24.1704C14.3221 25.3704 12.3822 25.9104 10.4622 25.6804" fill="white"/>
<path d="M10.4521 25.7004C15.2721 28.7904 21.6722 27.3904 24.7622 22.5704C25.9222 20.7604 26.4922 18.6404 26.3922 16.5004C27.1022 15.9904 27.7222 15.3504 28.2122 14.6104C27.5522 14.9004 26.8422 15.1004 26.1222 15.1804C26.8822 14.7204 27.4522 14.0104 27.7222 13.1604C27.0122 13.5804 26.2221 13.8804 25.4121 14.0504C24.0321 12.5804 21.7222 12.5104 20.2622 13.8904C19.3122 14.7804 18.9121 16.1104 19.2021 17.3704C16.2721 17.2204 13.5422 15.8404 11.6922 13.5604C10.7222 15.2204 11.2222 17.3504 12.8222 18.4204C12.2422 18.4004 11.6821 18.2504 11.1721 17.9604C11.1521 19.7104 12.3821 21.2304 14.0921 21.5804C13.5521 21.7304 12.9921 21.7504 12.4521 21.6404C12.9321 23.1204 14.2922 24.1404 15.8521 24.1704C14.3221 25.3704 12.3822 25.9104 10.4622 25.6804" stroke="white"/>
</svg>
